# FAMAS part: Upper body
mtllib FAMAS_V2.mtl
g upper_body
v -1.126200 4.031600 4.364400
v -1.028100 4.216700 4.371400
v -0.758800 4.073600 4.371100
v -0.856800 3.888800 4.364200
v -0.850600 4.574500 4.591900
v -0.890400 4.477300 4.632100
v -0.872200 4.511400 4.669300
v -0.842500 4.568900 4.693300
v -0.465900 4.325500 4.728200
v -0.848100 4.528100 4.728500
v -0.863300 4.502000 4.680200
v -0.481200 4.299200 4.679400
v -0.835200 3.877900 4.131200
v -0.751300 4.036200 4.137600
v -0.624800 3.970000 4.144700
v -0.709000 3.811000 4.138200
v -1.406800 3.479000 4.697700
v -1.415900 3.484200 4.582600
v -1.131500 3.333500 4.582300
v -1.016900 3.282300 4.698000
v -1.126000 3.334900 4.463800
v -1.009900 3.278900 4.463800
v -1.013400 3.272700 4.580900
v -0.826600 4.573500 4.700200
v -0.444900 4.361400 4.700600
v -0.545800 4.425000 4.584800
v -0.835700 4.578600 4.585100
v -0.421500 4.356000 4.568200
v -1.068900 4.138100 4.523000
v -1.039100 4.219400 4.384000
v -1.136000 4.036700 4.377200
v -1.125700 4.031000 4.519300
v -0.732500 3.822600 4.529200
v -0.677100 3.927100 4.532900
v -1.058600 4.131000 4.533300
v -1.114700 4.025200 4.529600
v -1.362900 3.585900 4.630000
v -1.331500 3.642700 4.591800
v -1.415100 3.510100 4.470700
v -1.420900 3.498800 4.589400
v -0.968000 3.381100 4.641400
v -0.934200 3.442100 4.601600
v -1.316400 3.644700 4.602000
v -1.351100 3.581900 4.642000
v -0.999100 3.319800 4.725700
v -1.381300 3.522300 4.726200
v -0.556900 4.425800 4.466300
v -0.432100 4.357100 4.458300
v -1.108700 3.363600 4.325800
v -0.986800 3.302600 4.326300
v -1.129500 3.349100 4.447300
v -1.145000 3.347300 4.463800
v -0.841500 4.568600 4.466600
v -0.856400 4.564100 4.473700
v -1.410900 3.494500 4.464100
v -0.572100 4.425800 4.466300
v -0.919100 3.719600 4.136900
v -0.927100 3.729800 4.148000
v -0.845700 3.883400 4.142500
v -0.858900 4.534000 4.714900
v -1.411900 3.494800 4.690800
v -0.749500 4.066100 4.354500
v -0.846400 3.883300 4.347600
v -1.392300 3.527900 4.712500
v -1.114900 3.376200 4.335700
v -0.764200 4.037000 4.148800
v -0.985800 3.347300 4.676900
v -1.368200 3.549400 4.678000
v -1.381000 3.551600 4.667200
v -0.530800 4.203100 4.603500
v -0.499000 4.265800 4.643600
v -0.880500 4.469700 4.644100
v -0.913000 4.405600 4.603800
v -0.919900 4.419200 4.593500
v -1.377000 3.558400 4.413700
v -1.312400 3.680300 4.389700
v -1.043300 3.537000 4.389500
v -1.107800 3.415400 4.413500
v -1.224300 3.846500 4.370500
v -0.954800 3.704000 4.370300
v -0.605900 4.362100 4.415700
v -0.670400 4.240500 4.391100
v -0.940000 4.382800 4.391300
v -0.875300 4.504800 4.415900
v -1.054600 3.464000 4.187200
v -1.007700 3.552500 4.158000
v -0.882200 3.484200 4.165300
v -0.929100 3.395700 4.194500
v -0.793300 3.652000 4.143900
v -0.535800 4.137900 4.166900
v -0.662700 4.203300 4.159600
v -0.615800 4.291800 4.189200
v -0.488900 4.226400 4.196500
v -1.272200 3.754600 4.545300
v -1.323100 3.683800 4.402600
v -1.387400 3.562500 4.426500
v -1.182500 3.923900 4.522500
v -1.232800 3.854100 4.383100
v -0.948900 4.389600 4.404200
v -0.979200 4.307300 4.546600
v -0.884500 4.511000 4.428700
v -0.876700 3.550600 4.555500
v -1.258800 3.753400 4.555800
v -0.788000 3.718000 4.532400
v -1.170800 3.919300 4.532900
v -0.970700 4.296900 4.557000
v -0.588300 4.094600 4.556800
v -0.674300 4.206600 4.171500
v -0.630400 4.289500 4.200200
v -1.060900 3.477400 4.198300
v -1.017000 3.560100 4.170000
v -1.033000 3.531200 4.373300
v -1.096300 3.411700 4.397100
v -0.943300 3.700500 4.353600
v -0.596400 4.354800 4.399200
v -0.659700 4.235300 4.374900
v -0.960800 3.338900 4.244200
v -1.086400 3.404200 4.239700
v -1.092900 3.417200 4.253600
v -0.584200 4.351600 4.242000
v -0.458400 4.284100 4.246600
v -0.598600 4.349600 4.255800
v -0.565100 4.393400 4.328200
v -0.440100 4.324900 4.326800
v -0.577200 4.390500 4.338100
v -0.563200 4.417400 4.449700
v 1.126200 4.031600 4.364400
v 0.856800 3.888800 4.364200
v 0.758800 4.073600 4.371100
v 1.028100 4.216700 4.371400
v 0.850600 4.574500 4.591900
v 0.842500 4.568900 4.693300
v 0.872200 4.511400 4.669300
v 0.890400 4.477300 4.632100
v 0.465900 4.325500 4.728200
v 0.481200 4.299200 4.679400
v 0.863300 4.502000 4.680200
v 0.848100 4.528100 4.728500
v 0.835200 3.877900 4.131200
v 0.709000 3.811000 4.138200
v 0.624800 3.970000 4.144700
v 0.751300 4.036200 4.137600
v 1.406800 3.479000 4.697700
v 1.016900 3.282300 4.698000
v 1.131500 3.333500 4.582300
v 1.415900 3.484200 4.582600
v 1.013400 3.272700 4.580900
v 1.009900 3.278900 4.463800
v 1.126000 3.334900 4.463800
v 0.826600 4.573500 4.700200
v 0.835700 4.578600 4.585100
v 0.545900 4.425000 4.584800
v 0.444900 4.361400 4.700600
v 0.421500 4.356000 4.568200
v 1.068900 4.138100 4.523000
v 1.125700 4.031000 4.519300
v 1.136000 4.036700 4.377200
v 1.039100 4.219400 4.384000
v 0.732500 3.822600 4.529200
v 1.114700 4.025200 4.529600
v 1.058600 4.131000 4.533300
v 0.677100 3.927100 4.532900
v 1.363000 3.585900 4.630000
v 1.420900 3.498800 4.589400
v 1.415100 3.510100 4.470700
v 1.331500 3.642700 4.591800
v 0.968000 3.381100 4.641400
v 1.351100 3.581900 4.642000
v 1.316400 3.644700 4.602000
v 0.934200 3.442100 4.601600
v 0.999100 3.319800 4.725700
v 1.381300 3.522300 4.726200
v 0.556900 4.425800 4.466300
v 0.432100 4.357100 4.458300
v 0.986900 3.302600 4.326300
v 1.108700 3.363600 4.325800
v 1.129500 3.349100 4.447300
v 1.145000 3.347300 4.463800
v 0.856400 4.564100 4.473700
v 0.841500 4.568600 4.466600
v 1.410900 3.494500 4.464100
v 0.572100 4.425800 4.466300
v 0.845700 3.883400 4.142500
v 0.927100 3.729800 4.148000
v 0.919100 3.719600 4.136900
v 0.858900 4.534000 4.714900
v 1.411900 3.494800 4.690800
v 0.846400 3.883300 4.347600
v 0.749500 4.066100 4.354500
v 1.392300 3.527900 4.712500
v 1.114900 3.376200 4.335700
v 0.764200 4.037000 4.148800
v 1.368200 3.549400 4.678000
v 0.985800 3.347300 4.676900
v 1.381000 3.551600 4.667200
v 0.530800 4.203100 4.603500
v 0.913000 4.405600 4.603800
v 0.880500 4.469700 4.644100
v 0.499000 4.265800 4.643600
v 0.919900 4.419200 4.593500
v 1.377000 3.558400 4.413700
v 1.107800 3.415400 4.413500
v 1.043300 3.537000 4.389500
v 1.312400 3.680300 4.389700
v 1.224300 3.846500 4.370500
v 0.954800 3.704000 4.370300
v 0.605900 4.362100 4.415700
v 0.875300 4.504800 4.415900
v 0.940000 4.382800 4.391300
v 0.670400 4.240500 4.391100
v 1.054600 3.464000 4.187200
v 0.929100 3.395700 4.194500
v 0.882200 3.484200 4.165300
v 1.007700 3.552500 4.158000
v 0.793300 3.652000 4.143900
v 0.535800 4.137900 4.166900
v 0.488900 4.226400 4.196500
v 0.615800 4.291800 4.189200
v 0.662700 4.203300 4.159600
v 1.387400 3.562500 4.426500
v 1.323100 3.683800 4.402600
v 1.272200 3.754600 4.545300
v 1.182500 3.923900 4.522500
v 1.232800 3.854100 4.383100
v 0.948900 4.389600 4.404200
v 0.884500 4.511000 4.428700
v 0.979200 4.307300 4.546600
v 1.258800 3.753400 4.555800
v 0.876700 3.550600 4.555500
v 0.788000 3.718000 4.532400
v 1.170800 3.919300 4.532900
v 0.588300 4.094600 4.556800
v 0.970700 4.296900 4.557000
v 0.630400 4.289500 4.200200
v 0.674300 4.206600 4.171500
v 1.060900 3.477400 4.198300
v 1.017000 3.560100 4.170000
v 1.096300 3.411700 4.397100
v 1.033000 3.531200 4.373300
v 0.943300 3.700500 4.353600
v 0.596400 4.354800 4.399200
v 0.659700 4.235300 4.374900
v 1.086400 3.404200 4.239700
v 0.960800 3.338900 4.244200
v 1.092900 3.417200 4.253600
v 0.584200 4.351600 4.242000
v 0.458400 4.284100 4.246600
v 0.598600 4.349600 4.255800
v 0.565100 4.393400 4.328200
v 0.440100 4.324900 4.326800
v 0.577200 4.390500 4.338100
v 0.563200 4.417400 4.449700
v 0.419900 4.337200 12.585100
v 0.394500 4.334200 12.441600
v 0.394500 4.690200 12.436100
v 0.419900 4.693200 12.579700
v 0.321600 4.331600 12.315300
v 0.321600 4.687500 12.309900
v 0.209900 4.329600 12.221600
v 0.209900 4.685500 12.216200
v 0.072900 4.328600 12.171700
v 0.072900 4.684500 12.166300
v -0.072900 4.328600 12.171700
v -0.072900 4.684500 12.166300
v -0.209900 4.329600 12.221600
v -0.209900 4.685500 12.216200
v -0.321600 4.331600 12.315300
v -0.321600 4.687500 12.309900
v -0.394500 4.334200 12.441600
v -0.394500 4.690200 12.436100
v -0.419900 4.337200 12.585100
v -0.419900 4.693200 12.579700
v -0.394500 4.340200 12.728700
v -0.394500 4.696200 12.722900
v -0.321600 4.342900 12.855000
v -0.321600 4.635900 12.850500
v -0.209900 4.344800 12.948700
v -0.258700 4.699900 12.902300
v -0.072900 4.345900 12.998500
v -0.072900 4.701800 12.993100
v -0.209900 4.700800 12.943200
v 0.072900 4.345900 12.998500
v 0.072900 4.701800 12.993100
v 0.209900 4.344800 12.948700
v 0.209900 4.700800 12.943200
v 0.258700 4.699900 12.902300
v 0.321600 4.342900 12.855000
v 0.394500 4.340200 12.728700
v 0.394500 4.696200 12.722900
v 0.321600 4.635900 12.850500
v 0.394500 4.930300 12.429500
v 0.419900 4.933300 12.573100
v 0.321600 4.927700 12.303200
v 0.209900 4.925700 12.209500
v 0.072900 4.924700 12.159700
v -0.072900 4.924700 12.159700
v -0.209900 4.925700 12.209500
v -0.321600 4.927700 12.303200
v -0.394500 4.930300 12.429500
v -0.419900 4.933300 12.573100
v -0.394500 4.936300 12.716600
v -0.321600 4.761700 12.847800
v -0.321600 4.939000 12.842900
v -0.321600 4.820900 15.673500
v -0.209900 4.822900 15.767200
v -0.209900 5.000100 15.762299
v -0.321600 4.998200 15.668600
v -0.072900 4.823900 15.817099
v -0.072900 5.001200 15.812199
v 0.072900 4.823900 15.817099
v 0.072900 5.001200 15.812199
v 0.209900 4.822900 15.767200
v 0.209900 5.000100 15.762299
v 0.321600 4.820900 15.673500
v 0.321600 4.998200 15.668600
v 0.321600 4.761700 12.847800
v 0.394500 4.936300 12.716600
v 0.321600 4.939000 12.842900
v -0.209900 4.758400 15.695200
v -0.258700 4.757400 15.645899
v -0.072900 4.759700 15.754000
v 0.072900 4.759700 15.754000
v 0.209900 4.758400 15.695200
v 0.258700 4.757400 15.645899
v 0.272700 5.001000 12.800100
v 0.000000 4.996200 12.571300
v 0.209900 5.061500 15.686898
v 0.258700 5.060400 15.637600
v 0.072900 5.062700 15.745600
v -0.072900 5.062700 15.745600
v -0.209900 5.061500 15.686898
v -0.272700 5.001000 12.800100
v -0.258700 5.060400 15.637600
v 0.356000 4.996200 12.571300
v 0.334500 4.993700 12.449600
v 0.272700 4.991400 12.342600
v 0.178000 4.989800 12.263100
v 0.061800 4.988900 12.220800
v -0.061800 4.988900 12.220800
v -0.178000 4.989800 12.263100
v -0.272700 4.991400 12.342600
v -0.334500 4.993700 12.449600
v -0.356000 4.996200 12.571300
v -0.334500 4.998800 12.693100
v 0.334500 4.998800 12.693100
v -1.234100 3.706400 13.791100
v -1.008100 3.595800 13.790900
v -1.016200 3.578500 14.243500
v -1.242100 3.689200 14.243798
v -1.046900 4.082800 14.357500
v -0.821000 3.972100 14.357300
v -0.783300 4.048300 14.244200
v -1.009300 4.159000 14.244498
v -1.204500 3.765100 14.357000
v -0.978600 3.654500 14.356800
v -0.984000 3.642700 14.765400
v -1.209900 3.753400 14.765698
v -1.389900 3.388800 15.440398
v -1.163800 3.278500 15.438998
v -1.197100 3.210800 15.739799
v -1.422800 3.321800 15.738600
v -1.118800 3.369800 15.217300
v -1.343600 3.482600 15.213800
v -0.896700 3.821100 13.599900
v -1.015800 4.146800 13.773300
v -0.789900 4.036100 13.773200
v -1.122600 3.931700 13.600200
v -0.906300 4.364900 15.219200
v -0.679200 4.256400 15.222798
v -0.815400 3.982800 14.765999
v -1.041300 4.093400 14.766100
v -0.827800 4.522000 15.740400
v -0.601700 4.411700 15.741400
v -0.634300 4.346400 15.444598
v -0.860100 4.457400 15.446100
v -0.852700 4.470700 16.311300
v -0.626800 4.360000 16.311300
v -0.597500 4.420000 16.016399
v -0.823400 4.530600 16.016899
v -1.427200 3.312800 16.015200
v -1.201300 3.202100 16.014799
v -1.171900 3.260500 16.309700
v -1.397800 3.371100 16.309601
v -1.220500 3.781200 16.718500
v -1.149500 3.924400 16.740900
v -1.074400 4.075800 16.720100
v -1.042100 4.146000 14.244498
v -1.251600 3.723200 14.243798
v -1.214000 3.799100 14.357000
v -1.079700 4.069800 14.357500
v -0.964000 4.245600 16.645201
v -0.740300 4.130500 16.650700
v -0.665200 4.282300 16.485901
v -0.893300 4.388400 16.491800
v -1.357200 3.452800 16.490200
v -1.133500 3.337700 16.484400
v -1.059600 3.486500 16.646700
v -1.287700 3.592600 16.641001
v -1.128400 3.913700 16.764900
v -0.902600 3.803000 16.764900
v -0.802300 4.005400 16.719999
v -1.041100 4.089900 16.727800
v -1.205600 3.758100 16.728901
v -0.992500 3.621800 16.720699
v -1.241900 3.743800 13.790000
v -1.049900 4.131100 13.774400
v -1.143600 3.942500 13.629600
v -1.219600 3.787000 14.765698
v -1.073900 4.080800 14.766100
v -1.352600 3.517600 15.213600
v -0.939600 4.350700 15.218598
v -1.399900 3.421700 15.440699
v -1.433300 3.353800 15.738600
v -0.859600 4.511000 15.740200
v -0.892400 4.445400 15.446198
v -1.437800 3.344700 16.015200
v -1.407700 3.404200 16.309601
v -0.885100 4.458500 16.311199
v -0.855200 4.519700 16.017000
v -1.364800 3.490500 16.490900
v -1.291500 3.638100 16.640600
v -1.002400 4.221300 16.644400
v -0.928000 4.371800 16.492399
v -0.899200 3.811700 15.803099
v 1.234100 3.706400 13.791100
v 1.242100 3.689200 14.243798
v 1.016200 3.578500 14.243500
v 1.008100 3.595800 13.790900
v 1.046900 4.082800 14.357500
v 1.009300 4.159000 14.244498
v 0.783300 4.048300 14.244200
v 0.821000 3.972100 14.357300
v 1.204500 3.765100 14.357000
v 1.209900 3.753400 14.765698
v 0.984000 3.642700 14.765400
v 0.978600 3.654500 14.356800
v 1.389900 3.388800 15.440398
v 1.422800 3.321800 15.738600
v 1.197100 3.210800 15.739799
v 1.163800 3.278500 15.438998
v 1.343600 3.482600 15.213800
v 1.118800 3.369800 15.217300
v 0.896700 3.821100 13.599900
v 0.789900 4.036100 13.773200
v 1.015800 4.146800 13.773300
v 1.122600 3.931700 13.600200
v 0.906300 4.364900 15.219200
v 1.041300 4.093400 14.766100
v 0.815400 3.982800 14.765999
v 0.679200 4.256400 15.222798
v 0.827800 4.522000 15.740400
v 0.860100 4.457400 15.446100
v 0.634300 4.346400 15.444598
v 0.601700 4.411700 15.741400
v 0.852700 4.470700 16.311300
v 0.823400 4.530600 16.016899
v 0.597500 4.420000 16.016399
v 0.626800 4.360000 16.311300
v 1.427200 3.312800 16.015200
v 1.397800 3.371100 16.309601
v 1.171900 3.260500 16.309700
v 1.201300 3.202100 16.014799
v 1.220500 3.781200 16.718500
v 1.074400 4.075800 16.720100
v 1.149500 3.924400 16.740900
v 1.042100 4.146000 14.244498
v 1.079700 4.069800 14.357500
v 1.214000 3.799100 14.357000
v 1.251600 3.723200 14.243798
v 0.964000 4.245600 16.645201
v 0.893300 4.388400 16.491800
v 0.665200 4.282300 16.485901
v 0.740300 4.130500 16.650700
v 1.357200 3.452800 16.490200
v 1.287700 3.592600 16.641001
v 1.059600 3.486500 16.646700
v 1.133500 3.337700 16.484400
v 1.128400 3.913700 16.764900
v 1.041100 4.089900 16.727800
v 0.802300 4.005400 16.719999
v 0.902600 3.803000 16.764900
v 1.205600 3.758100 16.728901
v 0.992500 3.621800 16.720699
v 1.241900 3.743800 13.790000
v 1.049900 4.131100 13.774400
v 1.143600 3.942500 13.629600
v 1.073900 4.080800 14.766100
v 1.219600 3.787000 14.765698
v 1.352600 3.517600 15.213600
v 0.939600 4.350700 15.218598
v 1.399900 3.421700 15.440699
v 0.892400 4.445400 15.446198
v 0.859600 4.511000 15.740200
v 1.433300 3.353800 15.738600
v 1.437800 3.344700 16.015200
v 0.855200 4.519700 16.017000
v 0.885100 4.458500 16.311199
v 1.407700 3.404200 16.309601
v 1.364800 3.490500 16.490900
v 0.928000 4.371800 16.492399
v 1.002400 4.221300 16.644400
v 1.291500 3.638100 16.640600
v 0.899200 3.811700 15.803099
v 0.278000 4.403700 16.907700
v 0.000000 4.403700 16.907700
v 0.000000 3.976400 16.907700
v 0.278000 3.976400 16.907700
v 0.000000 3.798300 16.907700
v 0.548300 3.798300 16.907700
v 0.548300 2.845900 16.907700
v 0.420000 2.493400 16.907700
v 0.515300 2.658400 16.907700
v 0.000000 2.305900 16.907700
v 0.095200 2.305900 16.907700
v 0.274200 2.371000 16.907700
v 0.278000 3.976400 16.516199
v 0.278000 4.403700 16.516199
v 0.548300 3.798300 16.516199
v 0.548300 2.845900 16.516199
v 0.515300 2.658400 16.516199
v 0.000000 2.305900 16.516199
v 0.095200 2.305900 16.516199
v 0.420000 2.493400 16.516199
v 0.274200 2.371000 16.516199
v -0.278000 4.403700 16.907700
v -0.278000 3.976400 16.907700
v -0.548300 3.798300 16.907700
v -0.548300 2.845900 16.907700
v -0.515300 2.658400 16.907700
v -0.420000 2.493400 16.907700
v -0.095200 2.305900 16.907700
v -0.274200 2.371000 16.907700
v -0.278000 4.403700 16.516199
v -0.278000 3.976400 16.516199
v -0.548300 3.798300 16.516199
v -0.548300 2.845900 16.516199
v -0.515300 2.658400 16.516199
v -0.095200 2.305900 16.516199
v -0.420000 2.493400 16.516199
v -0.274200 2.371000 16.516199
v -1.043600 4.036100 13.894499
v -0.963200 4.050500 4.637500
v -1.053500 3.952600 4.637500
v -1.133700 3.938300 13.894300
v -0.899100 3.959600 13.894300
v -0.818700 3.973900 4.637500
v -0.866100 4.059300 4.637500
v -0.946300 4.044900 13.894499
v -0.929400 3.830000 13.894100
v -0.849200 3.844300 4.637500
v -1.019700 3.732100 13.893900
v -0.939300 3.746500 4.637500
v -1.116800 3.723300 13.893900
v -1.036600 3.737700 4.637500
v -1.164200 3.808600 13.894100
v -1.083800 3.823000 4.637500
v 1.043600 4.036100 13.894499
v 1.133700 3.938300 13.894300
v 1.053500 3.952600 4.637500
v 0.963200 4.050500 4.637500
v 0.899100 3.959600 13.894300
v 0.946300 4.044900 13.894499
v 0.866100 4.059300 4.637500
v 0.818700 3.973900 4.637500
v 0.929400 3.830000 13.894100
v 0.849200 3.844300 4.637500
v 1.019700 3.732100 13.893900
v 0.939300 3.746500 4.637500
v 1.116800 3.723300 13.893900
v 1.036600 3.737700 4.637500
v 1.164200 3.808600 13.894100
v 1.083800 3.823000 4.637500
v -0.644200 3.026600 -4.784400
v -0.644200 3.026600 0.808600
v -0.616700 3.163500 0.808600
v -0.616700 3.163500 -4.784400
v -0.644200 2.668000 -4.784400
v -0.644200 2.668000 0.611100
v -0.487300 3.809300 -4.354300
v -0.487300 3.809300 0.808600
vt 2.951400 0.022000
vt 2.942100 0.022100
vt 2.941800 0.008400
vt 2.951300 0.008300
vt 2.923600 0.030700
vt 2.928200 0.033000
vt 2.926300 0.034500
vt 2.923300 0.035300
vt 2.928600 0.084700
vt 2.928000 0.103700
vt 2.925500 0.103500
vt 2.926000 0.084100
vt 2.955500 0.043400
vt 2.948300 0.043700
vt 2.947700 0.037800
vt 2.955400 0.037500
vt 2.989900 0.022600
vt 2.984700 0.022800
vt 2.985400 0.008300
vt 2.990800 0.002900
vt 2.987500 0.055700
vt 2.983900 0.052400
vt 2.987400 0.048300
vt 2.991000 0.051500
vt 2.912900 0.023100
vt 2.911900 0.003400
vt 2.917400 0.008500
vt 2.918100 0.023300
vt 2.916600 0.055800
vt 2.920100 0.051500
vt 2.923400 0.056300
vt 2.926200 0.078000
vt 2.945900 0.029200
vt 2.942200 0.022800
vt 2.951400 0.022700
vt 2.951500 0.029100
vt 2.898800 0.085000
vt 2.904500 0.084400
vt 2.906000 0.103600
vt 2.900800 0.104100
vt 2.904200 0.066800
vt 2.897000 0.067600
vt 2.974800 0.032600
vt 2.971700 0.031100
vt 2.978200 0.025000
vt 2.979300 0.030300
vt 2.874100 0.089000
vt 2.878000 0.088000
vt 2.881800 0.107000
vt 2.878300 0.107900
vt 2.910300 0.023000
vt 2.909600 0.003600
vt 2.993100 0.003100
vt 2.992500 0.022500
vt 2.927400 0.053500
vt 2.923700 0.048800
vt 2.979800 0.048400
vt 2.983200 0.044000
vt 2.929500 0.082800
vt 2.979200 0.008200
vt 2.980100 0.007800
vt 2.980000 0.008900
vt 2.923000 0.030400
vt 2.924000 0.025100
vt 2.924600 0.025500
vt 2.978800 0.024600
vt 2.979900 0.029900
vt 2.922600 0.008600
vt 2.922800 0.009300
vt 2.962700 0.043400
vt 2.962500 0.044200
vt 2.955500 0.044100
vt 2.923500 0.023000
vt 2.979300 0.022600
vt 2.922600 0.035700
vt 2.924900 0.036400
vt 2.926600 0.035200
vt 2.924900 0.037200
vt 2.979700 0.034800
vt 2.980400 0.035200
vt 2.941900 0.007500
vt 2.951300 0.007300
vt 2.946000 0.030000
vt 2.951500 0.029800
vt 2.971200 0.031800
vt 2.974600 0.033300
vt 2.978100 0.036700
vt 2.978100 0.035900
vt 2.982800 0.052500
vt 2.979500 0.049100
vt 2.955700 0.052600
vt 2.946900 0.052900
vt 2.948500 0.044400
vt 2.869200 0.090600
vt 2.871700 0.089800
vt 2.876200 0.108500
vt 2.873800 0.109200
vt 2.976400 0.034800
vt 2.976700 0.034100
vt 2.919700 0.083600
vt 2.923500 0.083800
vt 2.923400 0.103100
vt 2.919900 0.102900
vt 2.931700 0.032200
vt 2.928400 0.033700
vt 2.931300 0.031500
vt 2.871800 0.080100
vt 2.870200 0.084500
vt 2.868400 0.089000
vt 2.975400 0.022500
vt 2.969100 0.022200
vt 2.969400 0.008500
vt 2.975700 0.008700
vt 2.960700 0.022000
vt 2.960800 0.008300
vt 2.926800 0.009100
vt 2.933200 0.008800
vt 2.933700 0.022500
vt 2.927400 0.022900
vt 2.974100 0.044600
vt 2.970300 0.043900
vt 2.971400 0.038100
vt 2.976200 0.039300
vt 2.963100 0.037500
vt 2.939500 0.038800
vt 2.940800 0.044400
vt 2.936900 0.045400
vt 2.934700 0.040100
vt 2.965800 0.029600
vt 2.969200 0.022900
vt 2.975400 0.023300
vt 2.957000 0.029100
vt 2.960600 0.022700
vt 2.933600 0.023200
vt 2.937200 0.029800
vt 2.927400 0.023700
vt 2.884100 0.086800
vt 2.887400 0.105900
vt 2.893100 0.085600
vt 2.895600 0.104700
vt 2.914300 0.103100
vt 2.913600 0.083700
vt 2.882300 0.069100
vt 2.878600 0.069800
vt 2.889900 0.068300
vt 2.911800 0.066100
vt 2.915600 0.066000
vt 2.940900 0.045100
vt 2.937300 0.045900
vt 2.973800 0.045200
vt 2.970200 0.044500
vt 2.969300 0.007600
vt 2.975400 0.007800
vt 2.960600 0.007400
vt 2.927200 0.008200
vt 2.933300 0.007900
vt 2.965500 0.030300
vt 2.957000 0.029800
vt 2.937400 0.030600
vt 2.972800 0.052700
vt 2.964400 0.052600
vt 2.938500 0.053200
vt 2.932200 0.052900
vt 2.979900 0.041100
vt 2.977000 0.046000
vt 2.976800 0.046700
vt 2.934100 0.046800
vt 2.931100 0.041900
vt 2.934300 0.047500
vt 2.931300 0.049300
vt 2.927700 0.044600
vt 2.931500 0.049900
vt 2.923400 0.008600
vt 2.928300 0.053400
vt 2.978900 0.052000
vt 2.994400 0.054900
vt 2.924400 0.074200
vt 2.921600 0.069800
vt 2.918800 0.067100
vt 2.873500 0.074900
vt 2.875700 0.071600
vt 0.951400 0.022000
vt 0.951300 0.008300
vt 0.941800 0.008400
vt 0.942100 0.022100
vt 0.923600 0.030700
vt 0.923300 0.035300
vt 0.926300 0.034500
vt 0.928200 0.033000
vt 0.928600 0.084700
vt 0.926000 0.084100
vt 0.925500 0.103500
vt 0.928000 0.103700
vt 0.955500 0.043400
vt 0.955400 0.037500
vt 0.947700 0.037800
vt 0.948300 0.043700
vt 0.989900 0.022600
vt 0.990800 0.002900
vt 0.985400 0.008300
vt 0.984700 0.022800
vt 0.987500 0.055700
vt 0.991000 0.051500
vt 0.987400 0.048300
vt 0.983900 0.052400
vt 0.912900 0.023100
vt 0.918100 0.023300
vt 0.917400 0.008500
vt 0.911900 0.003400
vt 0.916600 0.055800
vt 0.923400 0.056300
vt 0.920100 0.051500
vt 0.926200 0.078000
vt 0.945900 0.029200
vt 0.951500 0.029100
vt 0.951400 0.022700
vt 0.942200 0.022800
vt 0.898800 0.085000
vt 0.900800 0.104100
vt 0.906000 0.103600
vt 0.904500 0.084400
vt 0.904200 0.066800
vt 0.897000 0.067600
vt 0.974800 0.032600
vt 0.979300 0.030300
vt 0.978200 0.025000
vt 0.971700 0.031100
vt 0.874100 0.089000
vt 0.878300 0.107900
vt 0.881800 0.107000
vt 0.878000 0.088000
vt 0.910300 0.023000
vt 0.909600 0.003600
vt 0.993100 0.003100
vt 0.992500 0.022500
vt 0.927400 0.053500
vt 0.923700 0.048800
vt 0.983200 0.044000
vt 0.979800 0.048400
vt 0.929500 0.082800
vt 0.979200 0.008200
vt 0.980000 0.008900
vt 0.980100 0.007800
vt 0.923000 0.030400
vt 0.924600 0.025500
vt 0.924000 0.025100
vt 0.978800 0.024600
vt 0.979900 0.029900
vt 0.922800 0.009300
vt 0.922600 0.008600
vt 0.955500 0.044100
vt 0.962500 0.044200
vt 0.962700 0.043400
vt 0.923500 0.023000
vt 0.979300 0.022600
vt 0.922600 0.035700
vt 0.924900 0.036400
vt 0.924900 0.037200
vt 0.926600 0.035200
vt 0.979700 0.034800
vt 0.980400 0.035200
vt 0.951300 0.007300
vt 0.941900 0.007500
vt 0.946000 0.030000
vt 0.951500 0.029800
vt 0.971200 0.031800
vt 0.974600 0.033300
vt 0.978100 0.035900
vt 0.978100 0.036700
vt 0.982800 0.052500
vt 0.979500 0.049100
vt 0.955700 0.052600
vt 0.948500 0.044400
vt 0.946900 0.052900
vt 0.869200 0.090600
vt 0.873800 0.109200
vt 0.876200 0.108500
vt 0.871700 0.089800
vt 0.976400 0.034800
vt 0.976700 0.034100
vt 0.919700 0.083600
vt 0.919900 0.102900
vt 0.923400 0.103100
vt 0.923500 0.083800
vt 0.931700 0.032200
vt 0.931300 0.031500
vt 0.928400 0.033700
vt 0.871800 0.080100
vt 0.870200 0.084500
vt 0.868400 0.089000
vt 0.975400 0.022500
vt 0.975700 0.008700
vt 0.969400 0.008500
vt 0.969100 0.022200
vt 0.960700 0.022000
vt 0.960800 0.008300
vt 0.926800 0.009100
vt 0.927400 0.022900
vt 0.933700 0.022500
vt 0.933200 0.008800
vt 0.974100 0.044600
vt 0.976200 0.039300
vt 0.971400 0.038100
vt 0.970300 0.043900
vt 0.963100 0.037500
vt 0.939500 0.038800
vt 0.934700 0.040100
vt 0.936900 0.045400
vt 0.940800 0.044400
vt 0.975400 0.023300
vt 0.969200 0.022900
vt 0.965800 0.029600
vt 0.957000 0.029100
vt 0.960600 0.022700
vt 0.933600 0.023200
vt 0.927400 0.023700
vt 0.937200 0.029800
vt 0.887400 0.105900
vt 0.884100 0.086800
vt 0.893100 0.085600
vt 0.895600 0.104700
vt 0.913600 0.083700
vt 0.914300 0.103100
vt 0.882300 0.069100
vt 0.878600 0.069800
vt 0.889900 0.068300
vt 0.915600 0.066000
vt 0.911800 0.066100
vt 0.937300 0.045900
vt 0.940900 0.045100
vt 0.973800 0.045200
vt 0.970200 0.044500
vt 0.975400 0.007800
vt 0.969300 0.007600
vt 0.960600 0.007400
vt 0.927200 0.008200
vt 0.933300 0.007900
vt 0.965500 0.030300
vt 0.957000 0.029800
vt 0.937400 0.030600
vt 0.972800 0.052700
vt 0.964500 0.052600
vt 0.932200 0.052900
vt 0.938500 0.053200
vt 0.977000 0.046000
vt 0.979900 0.041100
vt 0.976800 0.046700
vt 0.934100 0.046800
vt 0.931100 0.041900
vt 0.934300 0.047500
vt 0.931300 0.049300
vt 0.927700 0.044600
vt 0.931500 0.049900
vt 0.923400 0.008600
vt 0.928300 0.053400
vt 0.978900 0.052000
vt 0.994400 0.054900
vt 0.924400 0.074200
vt 0.921600 0.069800
vt 0.918800 0.067100
vt 0.875700 0.071600
vt 0.873500 0.074900
vt 0.535000 0.396200
vt 0.525400 0.396200
vt 0.525000 0.419600
vt 0.534600 0.419600
vt 0.515700 0.396200
vt 0.515500 0.419600
vt 0.506100 0.396200
vt 0.505900 0.419600
vt 0.496500 0.396200
vt 0.496400 0.419600
vt 0.486800 0.396200
vt 0.486900 0.419600
vt 0.477200 0.396200
vt 0.477300 0.419600
vt 0.467500 0.396200
vt 0.467800 0.419600
vt 0.457900 0.396200
vt 0.458200 0.419600
vt 0.448300 0.396200
vt 0.448600 0.419600
vt 0.438700 0.396200
vt 0.439100 0.419600
vt 0.611400 0.396200
vt 0.601800 0.396200
vt 0.602000 0.415800
vt 0.611700 0.419600
vt 0.592300 0.396200
vt 0.596700 0.419600
vt 0.582700 0.396200
vt 0.582800 0.419600
vt 0.592400 0.419600
vt 0.573200 0.396200
vt 0.573100 0.419600
vt 0.563600 0.396200
vt 0.563500 0.419600
vt 0.559200 0.419600
vt 0.554100 0.396200
vt 0.544600 0.396200
vt 0.544200 0.419600
vt 0.553900 0.415800
vt 0.776700 0.525600
vt 0.787500 0.525600
vt 0.787500 0.508200
vt 0.776700 0.508200
vt 0.797600 0.525600
vt 0.797600 0.508200
vt 0.808200 0.525600
vt 0.808200 0.508200
vt 0.818700 0.525600
vt 0.818700 0.508200
vt 0.828200 0.525600
vt 0.828200 0.508200
vt 2.818700 0.525600
vt 2.808200 0.525600
vt 2.808200 0.508200
vt 2.818700 0.508200
vt 2.797600 0.525600
vt 2.797600 0.508200
vt 2.787500 0.525600
vt 2.787500 0.508200
vt 2.776700 0.525600
vt 2.776700 0.508200
vt 2.765900 0.525600
vt 2.765900 0.508200
vt 2.755600 0.522400
vt 2.755600 0.508200
vt 2.541800 0.522400
vt 2.531200 0.522400
vt 2.531200 0.508200
vt 2.541800 0.508200
vt 2.520500 0.522400
vt 2.520500 0.508200
vt 2.512000 0.522400
vt 2.512000 0.508200
vt 0.520500 0.522400
vt 0.531200 0.522400
vt 0.531200 0.508200
vt 0.520500 0.508200
vt 0.541800 0.522400
vt 0.541800 0.508200
vt 0.755600 0.522400
vt 0.765900 0.525600
vt 0.765900 0.508200
vt 0.755600 0.508200
vt 0.646600 0.493300
vt 0.644200 0.490400
vt 0.478500 0.490700
vt 0.481300 0.493700
vt 0.641200 0.482100
vt 0.475000 0.482600
vt 0.641200 0.473300
vt 0.474900 0.474000
vt 0.644100 0.465100
vt 0.478400 0.465900
vt 0.646500 0.462100
vt 0.481200 0.462800
vt 0.842200 0.494900
vt 0.857100 0.477000
vt 0.653700 0.491800
vt 0.656700 0.494700
vt 0.649700 0.482800
vt 0.649700 0.473200
vt 0.653500 0.464300
vt 0.842000 0.459300
vt 0.656700 0.461100
vt 0.857200 0.500300
vt 0.865100 0.498800
vt 0.872200 0.495200
vt 0.877400 0.488200
vt 0.879800 0.481300
vt 0.879900 0.473000
vt 0.876900 0.465200
vt 0.872100 0.459300
vt 0.865800 0.455700
vt 0.857000 0.453800
vt 0.849000 0.455200
vt 0.849200 0.498900
vt 0.857300 0.505300
vt 0.866800 0.504400
vt 0.875000 0.499300
vt 0.881500 0.490900
vt 0.885200 0.483100
vt 0.884900 0.472300
vt 0.881300 0.462600
vt 0.876400 0.455500
vt 0.868200 0.450700
vt 0.857100 0.448800
vt 0.847500 0.451300
vt 0.839300 0.455700
vt 0.839500 0.498600
vt 0.847800 0.502800
vt 0.654400 0.499500
vt 0.648900 0.493000
vt 0.645400 0.482800
vt 0.645400 0.473300
vt 0.648500 0.463900
vt 0.654900 0.456900
vt 0.602200 0.424100
vt 0.553700 0.424100
vt 0.478100 0.498400
vt 0.472700 0.491400
vt 0.469600 0.482900
vt 0.469600 0.473800
vt 0.472600 0.465300
vt 0.478000 0.458200
vt 0.649800 0.498600
vt 0.479600 0.499100
vt 0.649700 0.456700
vt 0.479500 0.457500
vt 2.579100 0.112700
vt 2.581000 0.124500
vt 2.559900 0.127500
vt 2.557900 0.116200
vt 2.547500 0.096700
vt 2.545800 0.084600
vt 2.551300 0.082600
vt 2.553600 0.093900
vt 2.551200 0.115800
vt 2.553900 0.127700
vt 2.537200 0.131900
vt 2.531900 0.120900
vt 2.502300 0.144000
vt 2.507700 0.154400
vt 2.492800 0.161300
vt 2.489400 0.150000
vt 2.518000 0.147300
vt 2.511700 0.137300
vt 2.594100 0.090200
vt 2.575700 0.089000
vt 2.584000 0.080400
vt 2.585800 0.098800
vt 2.502700 0.090800
vt 2.504900 0.079200
vt 2.528700 0.086700
vt 2.527700 0.098900
vt 2.477500 0.087000
vt 2.476500 0.075300
vt 2.492700 0.076300
vt 2.491400 0.088000
vt 2.573000 0.077600
vt 2.575500 0.089200
vt 2.585900 0.099300
vt 2.596600 0.104700
vt 2.589800 0.118100
vt 2.452500 0.094500
vt 2.445900 0.084900
vt 2.461400 0.077800
vt 2.465000 0.088900
vt 2.477100 0.152700
vt 2.477800 0.164400
vt 2.460800 0.163300
vt 2.463500 0.152000
vt 2.443700 0.133700
vt 2.441200 0.126600
vt 2.439700 0.118900
vt 2.553300 0.094600
vt 2.557400 0.115600
vt 2.550600 0.113600
vt 2.547800 0.098900
vt 2.440600 0.109100
vt 2.429700 0.105300
vt 2.436800 0.093000
vt 2.445700 0.100500
vt 2.455100 0.148800
vt 2.449400 0.158900
vt 2.438700 0.150000
vt 2.447700 0.142500
vt 2.440000 0.126900
vt 2.428500 0.129300
vt 2.427400 0.115500
vt 2.438900 0.117700
vt 2.442700 0.134600
vt 2.432700 0.141000
vt 2.578600 0.111100
vt 2.575500 0.090800
vt 2.584200 0.099400
vt 2.531200 0.118200
vt 2.528000 0.101700
vt 2.511900 0.135600
vt 2.503500 0.092400
vt 2.502200 0.142500
vt 2.489300 0.148600
vt 2.477900 0.088400
vt 2.491900 0.089400
vt 2.477100 0.151300
vt 2.463500 0.150600
vt 2.453000 0.095800
vt 2.465400 0.090200
vt 2.455000 0.147400
vt 2.447800 0.140700
vt 2.441300 0.110800
vt 2.446300 0.101800
vt -1.168500 0.640400
vt -1.176900 0.640100
vt -1.176900 0.647900
vt -1.168500 0.647600
vt -1.166200 0.638600
vt -1.166200 0.649400
vt -1.156900 0.649000
vt -1.156500 0.638900
vt -1.153000 0.643800
vt -1.190700 0.656200
vt -1.198100 0.644000
vt -1.196800 0.657800
vt -1.202400 0.658000
vt -1.208500 0.656600
vt -1.212100 0.654900
vt -1.215400 0.651500
vt -1.216900 0.648400
vt -1.217800 0.644200
vt -1.216900 0.639600
vt -1.215500 0.636700
vt -1.212100 0.633300
vt -1.208500 0.631500
vt -1.202500 0.630100
vt -1.196900 0.630300
vt -1.190800 0.631800
vt -1.186200 0.633900
vt -1.186100 0.654100
vt 0.579100 0.112700
vt 0.557900 0.116200
vt 0.559900 0.127500
vt 0.581000 0.124500
vt 0.547500 0.096700
vt 0.553600 0.093900
vt 0.551300 0.082600
vt 0.545800 0.084600
vt 0.551200 0.115800
vt 0.531900 0.120900
vt 0.537200 0.131900
vt 0.553900 0.127700
vt 0.502300 0.144000
vt 0.489400 0.150000
vt 0.492800 0.161300
vt 0.507700 0.154400
vt 0.511700 0.137300
vt 0.518000 0.147300
vt 0.594100 0.090200
vt 0.584000 0.080400
vt 0.575700 0.089000
vt 0.585800 0.098800
vt 0.502700 0.090800
vt 0.527700 0.098900
vt 0.528700 0.086700
vt 0.504900 0.079200
vt 0.477500 0.087000
vt 0.491400 0.088000
vt 0.492700 0.076300
vt 0.476500 0.075300
vt 0.575500 0.089200
vt 0.573000 0.077600
vt 0.585900 0.099300
vt 0.589800 0.118100
vt 0.596600 0.104700
vt 0.452500 0.094500
vt 0.465000 0.088900
vt 0.461400 0.077800
vt 0.445900 0.084900
vt 0.477100 0.152700
vt 0.463500 0.152000
vt 0.460800 0.163300
vt 0.477800 0.164400
vt 0.443700 0.133700
vt 0.439700 0.118900
vt 0.441200 0.126600
vt 0.553300 0.094600
vt 0.547800 0.098900
vt 0.550600 0.113600
vt 0.557400 0.115600
vt 0.440600 0.109100
vt 0.445700 0.100500
vt 0.436800 0.093000
vt 0.429700 0.105300
vt 0.455100 0.148800
vt 0.447700 0.142500
vt 0.438700 0.150000
vt 0.449400 0.158900
vt 0.440000 0.126900
vt 0.438900 0.117700
vt 0.427400 0.115500
vt 0.428500 0.129300
vt 0.442700 0.134600
vt 0.432700 0.141000
vt 0.578600 0.111100
vt 0.575500 0.090800
vt 0.584200 0.099400
vt 0.528000 0.101700
vt 0.531200 0.118200
vt 0.511900 0.135600
vt 0.503500 0.092400
vt 0.502200 0.142500
vt 0.491900 0.089400
vt 0.477900 0.088400
vt 0.489300 0.148600
vt 0.477100 0.151300
vt 0.465400 0.090200
vt 0.453000 0.095800
vt 0.463500 0.150600
vt 0.455000 0.147400
vt 0.446300 0.101800
vt 0.441300 0.110800
vt 0.447800 0.140700
vt -1.168500 0.640400
vt -1.168500 0.647600
vt -1.176900 0.647900
vt -1.176900 0.640100
vt -1.166200 0.638600
vt -1.156500 0.638900
vt -1.156900 0.649000
vt -1.166200 0.649400
vt -1.153000 0.643800
vt -1.190700 0.656200
vt -1.196800 0.657800
vt -1.198100 0.644000
vt -1.202400 0.658000
vt -1.208500 0.656600
vt -1.212100 0.654900
vt -1.215400 0.651500
vt -1.216900 0.648400
vt -1.217800 0.644200
vt -1.216900 0.639600
vt -1.215500 0.636700
vt -1.212100 0.633300
vt -1.208500 0.631500
vt -1.202500 0.630100
vt -1.196900 0.630300
vt -1.190800 0.631800
vt -1.186200 0.633900
vt -1.186100 0.654100
vt 0.252500 0.208300
vt 0.252500 0.218400
vt 0.268100 0.218400
vt 0.268100 0.208300
vt 0.510300 0.299800
vt 0.510300 0.308900
vt 0.516100 0.308900
vt 0.516100 0.291000
vt 0.547200 0.291000
vt 0.558700 0.295200
vt 0.553300 0.292100
vt 0.564800 0.308900
vt 0.564800 0.305800
vt 0.562600 0.299900
vt 0.268100 0.194100
vt 0.252500 0.194100
vt 0.278800 0.208300
vt 0.278800 0.194100
vt 0.249000 0.158900
vt 0.238800 0.184000
vt 0.249100 0.188200
vt 0.259300 0.163100
vt 0.236800 0.188900
vt 0.247100 0.193100
vt 0.231600 0.201800
vt 0.230600 0.204300
vt 0.240900 0.208500
vt 0.241900 0.206000
vt 0.235100 0.193200
vt 0.245400 0.197400
vt 0.233500 0.197100
vt 0.243800 0.201300
vt 2.252500 0.208300
vt 2.268100 0.208300
vt 2.268100 0.218400
vt 2.252500 0.218400
vt 0.510300 0.299800
vt 0.516100 0.291000
vt 0.547200 0.291000
vt 0.553300 0.292100
vt 0.558700 0.295200
vt 0.564800 0.305800
vt 0.562600 0.299900
vt 2.252500 0.194100
vt 2.268100 0.194100
vt 2.278800 0.194100
vt 2.278800 0.208300
vt 2.249000 0.158900
vt 2.259300 0.163100
vt 2.249100 0.188200
vt 2.238800 0.184000
vt 2.247100 0.193100
vt 2.236800 0.188900
vt 2.231600 0.201800
vt 2.241900 0.206000
vt 2.240900 0.208500
vt 2.230600 0.204300
vt 2.245400 0.197400
vt 2.235100 0.193200
vt 2.243800 0.201300
vt 2.233500 0.197100
vt 2.992800 0.586000
vt 2.551600 0.588600
vt 2.551600 0.581000
vt 2.992800 0.581000
vt 2.992800 0.596100
vt 2.551600 0.597100
vt 2.551600 0.593400
vt 2.992800 0.590500
vt 2.992800 0.603400
vt 2.551600 0.602500
vt 2.992800 0.610800
vt 2.551600 0.607900
vt 2.992800 0.615500
vt 2.551600 0.612400
vt 2.992800 0.619400
vt 2.551600 0.617800
vt 2.992800 0.625000
vt 2.551500 0.625000
vt 0.992800 0.586000
vt 0.992800 0.581000
vt 0.551600 0.581000
vt 0.551600 0.588600
vt 0.992800 0.596100
vt 0.992800 0.590500
vt 0.551600 0.593400
vt 0.551600 0.597100
vt 0.992800 0.603400
vt 0.551600 0.602500
vt 0.992800 0.610800
vt 0.551600 0.607900
vt 0.992800 0.615500
vt 0.551600 0.612400
vt 0.992800 0.619400
vt 0.551600 0.617800
vt 0.992800 0.625000
vt 0.551500 0.625000
vt 0.038000 0.996200
vt 0.038000 0.769700
vt 0.032400 0.769700
vt 0.032400 0.996200
vt 0.052600 0.996200
vt 0.052600 0.777700
vt 0.005700 0.978800
vt 0.005700 0.769700
vn 0.000312 0.002130 -0.999998
vn 0.031713 0.061597 -0.997597
vn -0.907958 0.413996 0.064958
vn -0.907563 0.411300 0.084623
vn -0.900284 0.430677 0.063292
vn -0.396958 -0.749822 0.529332
vn -0.364020 -0.686898 0.629016
vn 0.044307 -0.021119 -0.998795
vn 0.078946 0.043965 -0.995909
vn -0.457809 -0.888603 0.028223
vn -0.466959 -0.884005 -0.021996
vn -0.477248 -0.878669 -0.013207
vn -0.457142 -0.888320 0.043689
vn -0.476428 -0.873042 -0.103986
vn -0.439433 -0.887599 -0.138080
vn -0.451837 -0.892076 0.006646
vn 0.477948 0.877751 0.033465
vn 0.483964 0.874066 0.042281
vn 0.479449 0.877476 -0.012788
vn 0.472972 0.880497 -0.031961
vn 0.485719 0.874092 0.006368
vn 0.846313 -0.514845 0.136710
vn 0.789887 -0.602079 0.116531
vn 0.833521 -0.538084 0.125334
vn -0.883331 0.461829 0.080250
vn -0.880533 0.466733 0.082593
vn -0.000066 -0.002117 0.999998
vn -0.036008 -0.069422 0.996937
vn 0.879235 -0.471760 0.066251
vn 0.881501 -0.467420 0.066892
vn -0.851084 0.521915 0.057096
vn -0.862768 0.503325 0.047915
vn -0.857252 0.513433 0.038802
vn 0.278543 0.526268 0.803402
vn 0.198281 0.373289 0.906278
vn 0.248193 0.457392 0.853928
vn -0.239892 -0.464406 0.852513
vn 0.473268 0.870315 -0.136269
vn -0.414475 -0.838292 -0.354228
vn 0.902614 -0.393024 0.175556
vn -0.769720 -0.416754 -0.483578
vn -0.723979 -0.576749 -0.378439
vn -0.665736 -0.421171 -0.615963
vn -0.289079 0.957305 0.001054
vn -0.382389 0.860762 -0.335958
vn -0.928563 -0.156621 -0.336511
vn -0.957175 -0.289508 -0.000986
vn 0.000000 0.999977 0.006748
vn -0.164916 0.963153 -0.212457
vn -0.156457 0.919015 -0.361847
vn -0.609971 0.325046 -0.722690
vn -0.642445 0.282677 -0.712291
vn 0.404083 0.763428 -0.503879
vn -0.412335 -0.760317 -0.501894
vn -0.473505 -0.810497 -0.344800
vn -0.390455 0.839576 0.377699
vn -0.757813 0.149984 0.634999
vn -0.826777 -0.266051 0.495638
vn -0.914960 -0.148889 0.375075
vn -0.720122 0.383144 -0.578468
vn -0.698420 0.416359 -0.582112
vn -0.667205 0.355263 -0.654694
vn -0.647246 0.394235 -0.652420
vn -0.598318 0.250715 0.761024
vn -0.565416 0.298129 0.769041
vn -0.479180 0.599737 0.640861
vn -0.387527 0.713907 0.583232
vn -0.549477 0.542707 0.635251
vn -0.549477 0.542707 0.635251
vn -0.925663 -0.271130 -0.263887
vn -0.883502 0.468418 -0.002908
vn -0.883334 0.468734 -0.002979
vn 0.397527 0.749137 0.529873
vn 0.363005 0.685061 0.631601
vn -0.240634 0.833064 0.498096
vn -0.198773 -0.375771 0.905144
vn -0.280342 -0.528569 0.801263
vn -0.766173 0.058076 0.640004
vn -0.810348 -0.079229 0.580568
vn -0.894507 0.445241 0.040233
vn -0.902852 0.426009 0.058089
vn -0.861818 0.503297 0.062938
vn -0.870838 0.490009 0.039134
vn 0.897115 -0.439579 0.044222
vn 0.906306 -0.420675 0.040514
vn 0.914920 -0.402203 0.033974
vn 0.905655 -0.422797 0.032132
vn 0.902466 -0.430749 0.003220
vn 0.812421 -0.558760 0.166612
vn 0.817536 -0.535518 0.211791
vn 0.889260 -0.454666 0.049961
vn -0.177658 -0.327654 -0.927944
vn -0.064641 -0.120257 -0.990636
vn -0.031155 -0.057346 -0.997868
vn 0.179203 0.339806 -0.923265
vn 0.065085 0.124582 -0.990072
vn -0.176972 -0.418425 -0.890843
vn -0.049887 -0.195575 -0.979419
vn 0.009639 -0.086090 -0.996241
vn 0.135749 0.154534 -0.978617
vn 0.247732 0.384066 -0.889451
vn -0.875047 0.478639 0.072090
vn -0.869121 0.491173 0.058126
vn -0.878114 0.471664 0.080311
vn -0.887405 0.455369 0.071776
vn -0.899057 0.435447 0.045635
vn 0.112162 0.209875 0.971273
vn 0.035541 0.065183 0.997240
vn -0.112794 -0.214129 0.970271
vn 0.887854 -0.455502 0.065065
vn 0.888068 -0.455427 0.062630
vn 0.894394 -0.440423 0.078015
vn 0.883855 -0.463013 0.066476
vn 0.860744 -0.504749 0.065933
vn 0.875348 -0.479141 0.064736
vn 0.865214 -0.497736 0.060520
vn -0.572548 0.461426 -0.677698
vn -0.539258 0.617182 -0.572963
vn -0.595245 0.376651 -0.709801
vn -0.813217 0.102697 -0.572828
vn -0.702111 0.217402 -0.678068
vn -0.749983 0.305279 -0.586797
vn -0.777256 0.109706 -0.619546
vn -0.735915 0.346730 -0.581557
vn -0.556849 0.587600 -0.587065
vn -0.672650 0.451332 -0.586379
vn -0.704712 0.271212 -0.655610
vn -0.773420 0.106716 -0.624847
vn -0.686863 0.315834 -0.654574
vn -0.522039 0.582311 -0.623208
vn -0.620554 0.433977 -0.653128
vn -0.521012 0.468860 0.713244
vn -0.545910 0.352326 0.760164
vn -0.680782 0.164877 0.713689
vn -0.883847 0.467768 -0.002945
vn -0.883744 0.467962 -0.003008
vn -0.883866 0.467731 -0.002880
vn -0.883699 0.468046 -0.002923
vn -0.882971 0.469418 -0.003144
vn -0.883332 0.468739 -0.002879
vn -0.882917 0.469519 -0.003091
vn -0.332478 -0.686323 -0.646853
vn -0.911371 -0.065131 -0.406400
vn 0.376819 0.662197 -0.647691
vn -0.478658 0.782266 -0.398680
vn 0.446345 0.820044 -0.358196
vn -0.454579 0.858357 -0.237869
vn -0.317662 0.853220 -0.413650
vn -0.907673 0.418899 0.025552
vn -0.882864 0.469620 -0.003039
vn -0.882565 0.470183 -0.002616
vn -0.884020 0.467442 -0.002626
vn -0.884184 0.467134 -0.002239
vn 0.857749 -0.513980 -0.009537
vn -0.882852 0.469639 -0.003487
vn 0.863693 -0.500220 0.061754
vn 0.858844 -0.508389 0.062662
vn 0.893008 -0.442884 0.079945
vn 0.904227 -0.414413 0.103126
vn -0.883949 0.467574 -0.002882
vn -0.000312 0.002130 -0.999998
vn -0.031713 0.061597 -0.997597
vn 0.907958 0.413996 0.064958
vn 0.900284 0.430677 0.063292
vn 0.907563 0.411300 0.084623
vn 0.396958 -0.749822 0.529332
vn 0.364020 -0.686898 0.629016
vn -0.044307 -0.021119 -0.998795
vn -0.078946 0.043965 -0.995909
vn 0.457809 -0.888603 0.028223
vn 0.457142 -0.888320 0.043689
vn 0.477248 -0.878669 -0.013207
vn 0.466959 -0.884005 -0.021996
vn 0.451837 -0.892076 0.006646
vn 0.439511 -0.887572 -0.138009
vn 0.476478 -0.873021 -0.103938
vn -0.478007 0.877728 0.033223
vn -0.473032 0.880464 -0.031988
vn -0.479369 0.877520 -0.012761
vn -0.483841 0.874141 0.042129
vn -0.485499 0.874213 0.006449
vn -0.846313 -0.514845 0.136710
vn -0.833521 -0.538084 0.125334
vn -0.789887 -0.602079 0.116531
vn 0.883331 0.461829 0.080250
vn 0.880533 0.466733 0.082593
vn 0.000066 -0.002117 0.999998
vn 0.036008 -0.069422 0.996937
vn -0.879235 -0.471760 0.066251
vn -0.881501 -0.467420 0.066892
vn 0.851228 0.521685 0.057060
vn 0.857259 0.513441 0.038533
vn 0.862774 0.503332 0.047736
vn -0.278544 0.526268 0.803402
vn -0.198281 0.373288 0.906278
vn -0.248193 0.457392 0.853928
vn 0.239892 -0.464406 0.852513
vn -0.473209 0.870364 -0.136158
vn 0.414604 -0.838214 -0.354260
vn -0.902614 -0.393024 0.175556
vn 0.769720 -0.416754 -0.483578
vn 0.665736 -0.421171 -0.615963
vn 0.723979 -0.576749 -0.378439
vn 0.289079 0.957305 0.001054
vn 0.382389 0.860762 -0.335958
vn 0.928563 -0.156621 -0.336511
vn 0.957175 -0.289508 -0.000986
vn 0.156457 0.919015 -0.361847
vn 0.164916 0.963153 -0.212457
vn 0.609971 0.325046 -0.722690
vn 0.642445 0.282677 -0.712291
vn -0.404141 0.763451 -0.503798
vn 0.412335 -0.760317 -0.501893
vn 0.473505 -0.810497 -0.344800
vn 0.390455 0.839576 0.377699
vn 0.757813 0.149984 0.634999
vn 0.826777 -0.266051 0.495638
vn 0.914960 -0.148889 0.375075
vn 0.720122 0.383144 -0.578468
vn 0.698420 0.416359 -0.582112
vn 0.667205 0.355263 -0.654694
vn 0.647246 0.394235 -0.652420
vn 0.598318 0.250715 0.761024
vn 0.565416 0.298129 0.769041
vn 0.478607 0.599831 0.641200
vn 0.386599 0.713898 0.583859
vn 0.549477 0.542707 0.635251
vn 0.925663 -0.271130 -0.263887
vn 0.883502 0.468418 -0.002908
vn 0.883334 0.468734 -0.002979
vn -0.397527 0.749137 0.529873
vn -0.363005 0.685061 0.631601
vn 0.240292 0.832980 0.498402
vn 0.198773 -0.375771 0.905144
vn 0.280342 -0.528569 0.801263
vn 0.766173 0.058076 0.640004
vn 0.810348 -0.079229 0.580568
vn 0.894507 0.445241 0.040233
vn 0.902852 0.426009 0.058089
vn 0.861945 0.503052 0.063169
vn 0.870838 0.490009 0.039134
vn -0.897141 -0.439541 0.044072
vn -0.914920 -0.402203 0.033974
vn -0.906306 -0.420675 0.040514
vn -0.905655 -0.422797 0.032132
vn -0.902466 -0.430749 0.003220
vn -0.817536 -0.535518 0.211791
vn -0.812421 -0.558760 0.166612
vn -0.889260 -0.454666 0.049961
vn 0.177658 -0.327654 -0.927944
vn 0.064641 -0.120257 -0.990636
vn 0.031155 -0.057346 -0.997868
vn -0.179203 0.339806 -0.923265
vn -0.065085 0.124582 -0.990072
vn 0.176972 -0.418425 -0.890843
vn 0.049887 -0.195575 -0.979419
vn -0.009639 -0.086090 -0.996241
vn -0.135749 0.154534 -0.978617
vn -0.247732 0.384066 -0.889451
vn 0.869121 0.491173 0.058126
vn 0.875047 0.478639 0.072090
vn 0.878114 0.471664 0.080311
vn 0.887405 0.455369 0.071776
vn 0.899057 0.435447 0.045635
vn -0.112162 0.209875 0.971273
vn -0.035541 0.065183 0.997240
vn 0.112794 -0.214129 0.970271
vn -0.887854 -0.455502 0.065065
vn -0.894477 -0.440131 0.078711
vn -0.888040 -0.455490 0.062557
vn -0.883855 -0.463013 0.066476
vn -0.860744 -0.504749 0.065933
vn -0.865214 -0.497736 0.060520
vn -0.875348 -0.479141 0.064736
vn 0.572548 0.461426 -0.677698
vn 0.539258 0.617182 -0.572963
vn 0.595245 0.376651 -0.709801
vn 0.813217 0.102697 -0.572828
vn 0.702111 0.217402 -0.678068
vn 0.749983 0.305279 -0.586796
vn 0.777256 0.109706 -0.619546
vn 0.735915 0.346730 -0.581557
vn 0.556849 0.587600 -0.587065
vn 0.672650 0.451332 -0.586379
vn 0.704712 0.271212 -0.655610
vn 0.773420 0.106716 -0.624847
vn 0.686863 0.315834 -0.654574
vn 0.522039 0.582311 -0.623208
vn 0.620554 0.433977 -0.653128
vn 0.521012 0.468860 0.713244
vn 0.545910 0.352326 0.760164
vn 0.680782 0.164877 0.713689
vn 0.883847 0.467768 -0.002945
vn 0.883866 0.467731 -0.002880
vn 0.883744 0.467962 -0.003008
vn 0.883699 0.468046 -0.002923
vn 0.882971 0.469418 -0.003144
vn 0.882917 0.469519 -0.003091
vn 0.883332 0.468739 -0.002879
vn 0.332511 -0.686231 -0.646934
vn 0.911371 -0.065131 -0.406400
vn -0.376819 0.662197 -0.647691
vn 0.478658 0.782266 -0.398680
vn -0.446345 0.820044 -0.358196
vn 0.454579 0.858357 -0.237869
vn 0.317662 0.853220 -0.413650
vn 0.907673 0.418899 0.025552
vn 0.882864 0.469620 -0.003039
vn 0.882565 0.470183 -0.002616
vn 0.884020 0.467442 -0.002626
vn 0.884184 0.467134 -0.002239
vn -0.857749 -0.513980 -0.009537
vn 0.882852 0.469639 -0.003487
vn -0.863693 -0.500220 0.061754
vn -0.858844 -0.508389 0.062662
vn -0.904646 -0.413033 0.104971
vn -0.893131 -0.442544 0.080442
vn 0.883949 0.467574 -0.002882
vn 1.000000 0.000002 0.000000
vn 0.939602 -0.005240 -0.342229
vn 0.939609 -0.007348 -0.342171
vn 0.766042 -0.009786 -0.642716
vn 0.766047 -0.013829 -0.642636
vn 0.500110 -0.013137 -0.865862
vn 0.500046 -0.018592 -0.865799
vn 0.173793 -0.014939 -0.984669
vn 0.173715 -0.021043 -0.984571
vn -0.173793 -0.014939 -0.984669
vn -0.173715 -0.021043 -0.984571
vn -0.500110 -0.013137 -0.865862
vn -0.500046 -0.018592 -0.865799
vn -0.766042 -0.009786 -0.642716
vn -0.766047 -0.013829 -0.642636
vn -0.939602 -0.005240 -0.342229
vn -0.939609 -0.007348 -0.342171
vn -1.000000 0.000002 0.000001
vn -0.939689 0.005414 0.341987
vn -0.927051 0.008011 0.374850
vn -0.766263 0.009994 0.642449
vn -0.766731 0.011879 0.641859
vn -0.549803 0.012834 0.835196
vn -0.643566 0.013328 0.765275
vn -0.173636 0.015006 0.984695
vn -0.499787 0.013313 0.866046
vn 0.173636 0.015006 0.984695
vn 0.549803 0.012834 0.835196
vn 0.499787 0.013313 0.866046
vn 0.643566 0.013328 0.765275
vn 0.766263 0.009994 0.642449
vn 0.939689 0.005414 0.341987
vn 0.927051 0.008011 0.374850
vn 0.766731 0.011879 0.641859
vn 0.939612 -0.009456 -0.342112
vn 1.000000 -0.000051 0.000151
vn 0.766040 -0.017872 -0.642545
vn 0.499966 -0.024047 -0.865711
vn 0.173631 -0.027147 -0.984437
vn -0.173631 -0.027147 -0.984437
vn -0.499966 -0.024047 -0.865711
vn -0.766040 -0.017872 -0.642545
vn -0.939612 -0.009456 -0.342112
vn -1.000000 -0.000051 0.000151
vn -0.939674 0.009178 0.341947
vn -0.886506 0.010632 0.462594
vn -0.966016 0.006933 0.258390
vn -0.906297 0.011681 0.422480
vn -0.500104 0.023935 0.865635
vn -0.500104 0.023935 0.865635
vn -0.173791 0.027212 0.984407
vn 0.173791 0.027212 0.984406
vn 0.500104 0.023935 0.865635
vn 0.906297 0.011681 0.422480
vn 0.886506 0.010632 0.462594
vn 0.939674 0.009178 0.341947
vn 0.966016 0.006933 0.258390
vn -0.000010 -0.999781 0.020945
vn 0.000041 -0.999780 0.020957
vn -0.000002 0.999780 -0.020972
vn 0.000004 0.999783 -0.020839
vn 0.701919 0.712099 -0.014968
vn 0.660227 0.706357 -0.255265
vn 0.538693 0.701401 -0.466739
vn 0.351895 0.697501 -0.624230
vn 0.122268 0.695250 -0.708292
vn -0.122268 0.695250 -0.708292
vn -0.351895 0.697501 -0.624230
vn -0.538693 0.701401 -0.466739
vn -0.660227 0.706357 -0.255265
vn -0.701919 0.712099 -0.014968
vn -0.658923 0.717826 0.224825
vn -0.691743 0.702795 0.166046
vn -0.691743 0.702795 0.166046
vn 0.691743 0.702795 0.166046
vn 0.658923 0.717826 0.224825
vn 0.644544 0.715304 0.270007
vn 0.372710 0.720793 0.584419
vn 0.129516 0.739036 0.661098
vn -0.129516 0.739036 0.661098
vn -0.372710 0.720793 0.584419
vn -0.372710 0.720793 0.584419
vn -0.644544 0.715304 0.270007
vn -0.623711 -0.721825 0.299921
vn -0.374737 -0.691714 0.617336
vn -0.130359 -0.706322 0.695784
vn -0.130359 -0.706322 0.695784
vn 0.130359 -0.706322 0.695784
vn 0.374737 -0.691714 0.617336
vn 0.623711 -0.721825 0.299921
vn -0.707208 -0.706851 0.014811
vn 0.707208 -0.706851 0.014811
vn -0.390143 -0.795773 -0.463178
vn -0.419906 -0.858041 0.295709
vn -0.419906 -0.858041 0.295709
vn 0.352200 0.717523 0.600929
vn 0.419581 0.855718 0.302819
vn -0.439692 -0.897592 -0.031619
vn -0.415819 -0.846659 -0.332060
vn -0.435963 -0.888989 -0.140122
vn -0.365255 -0.744561 -0.558764
vn -0.384512 -0.782288 -0.490078
vn -0.384512 -0.782288 -0.490078
vn 0.099406 0.204699 -0.973764
vn 0.349625 0.714801 -0.605658
vn 0.388577 0.793498 -0.468369
vn -0.006472 -0.010810 -0.999921
vn 0.383241 0.785091 -0.486579
vn 0.365350 0.746502 -0.556107
vn 0.365350 0.746502 -0.556107
vn 0.439677 0.897674 -0.029420
vn 0.435193 0.889823 -0.137190
vn 0.435193 0.889823 -0.137190
vn 0.414527 0.849026 -0.327601
vn 0.414527 0.849026 -0.327601
vn 0.412542 0.846143 0.337419
vn 0.437647 0.894217 0.094030
vn -0.438371 -0.894161 0.091145
vn -0.416206 -0.845644 0.334153
vn -0.895944 0.444167 0.000628
vn -0.895958 0.444137 0.000927
vn -0.895926 0.444202 0.000835
vn 0.244635 0.518332 0.819442
vn 0.353043 0.724432 0.592081
vn -0.356602 -0.724089 0.590364
vn -0.259142 -0.511049 0.819557
vn -0.351659 -0.719289 0.599132
vn -0.351659 -0.719289 0.599132
vn -0.000298 -0.010162 0.999948
vn 0.133289 0.286613 0.948729
vn -0.147788 -0.288111 0.946124
vn -0.147788 -0.288111 0.946124
vn -0.895914 0.444227 0.000903
vn -0.895935 0.444184 0.000488
vn -0.895959 0.444135 0.001039
vn -0.924387 -0.183750 -0.334281
vn -0.945007 -0.245685 0.215871
vn -0.924387 -0.183750 -0.334281
vn -0.357237 0.907270 0.221909
vn -0.372776 0.901103 0.221475
vn -0.938985 -0.264649 0.219699
vn -0.939871 -0.262417 -0.218587
vn -0.939871 -0.262417 -0.218587
vn -0.931710 -0.277070 -0.234839
vn -0.947034 -0.305564 -0.098783
vn -0.901744 -0.249515 -0.352988
vn -0.419107 0.844182 -0.334225
vn -0.661381 0.316456 -0.680023
vn -0.347519 0.869844 -0.350146
vn -0.359912 0.907446 -0.216807
vn -0.359912 0.907446 -0.216807
vn -0.347519 0.869844 -0.350146
vn -0.329921 0.939041 -0.096716
vn -0.343391 0.910206 -0.231534
vn -0.354316 0.903712 0.240346
vn -0.331276 0.941162 0.066865
vn -0.331276 0.941162 0.066865
vn -0.949639 -0.306565 0.064835
vn -0.934509 -0.264834 0.237815
vn -0.949639 -0.306565 0.064835
vn -0.766907 -0.092951 0.634991
vn -0.890135 -0.175483 0.420553
vn -0.890135 -0.175483 0.420553
vn -0.766907 -0.092951 0.634991
vn -0.398010 0.814363 0.422375
vn -0.409139 0.665322 0.624461
vn -0.398010 0.814363 0.422375
vn -0.440524 0.478848 0.759370
vn -0.549890 0.266035 0.791736
vn -0.440524 0.478848 0.759370
vn -0.642087 0.041548 0.765505
vn 0.895915 -0.444226 -0.000770
vn 0.895937 -0.444181 -0.000866
vn 0.895977 -0.444101 -0.000777
vn 0.895960 -0.444134 -0.000972
vn 0.895873 -0.444310 -0.000826
vn 0.895872 -0.444312 -0.000995
vn 0.896000 -0.444053 -0.000792
vn 0.895896 -0.444263 -0.000465
vn 0.390143 -0.795773 -0.463178
vn 0.419906 -0.858041 0.295709
vn 0.419906 -0.858041 0.295709
vn -0.352200 0.717523 0.600929
vn -0.419581 0.855718 0.302819
vn 0.439692 -0.897592 -0.031619
vn 0.415819 -0.846659 -0.332060
vn 0.435963 -0.888989 -0.140122
vn 0.365255 -0.744561 -0.558764
vn 0.384512 -0.782288 -0.490078
vn 0.384512 -0.782288 -0.490078
vn -0.099406 0.204699 -0.973764
vn -0.388577 0.793498 -0.468369
vn -0.349625 0.714801 -0.605658
vn 0.006472 -0.010810 -0.999921
vn -0.383241 0.785091 -0.486579
vn -0.365350 0.746502 -0.556107
vn -0.365350 0.746502 -0.556107
vn -0.439677 0.897674 -0.029420
vn -0.435193 0.889823 -0.137190
vn -0.414527 0.849026 -0.327601
vn -0.414527 0.849026 -0.327601
vn -0.435193 0.889823 -0.137190
vn -0.412542 0.846143 0.337419
vn -0.437647 0.894217 0.094030
vn 0.438371 -0.894161 0.091145
vn 0.416206 -0.845644 0.334153
vn 0.895944 0.444167 0.000628
vn 0.895958 0.444137 0.000895
vn 0.895926 0.444202 0.000835
vn -0.244635 0.518332 0.819442
vn -0.353043 0.724432 0.592081
vn 0.356602 -0.724089 0.590364
vn 0.259142 -0.511049 0.819557
vn 0.351659 -0.719289 0.599132
vn 0.351659 -0.719289 0.599132
vn 0.000298 -0.010162 0.999948
vn -0.133289 0.286613 0.948729
vn 0.147788 -0.288111 0.946124
vn 0.147788 -0.288111 0.946124
vn 0.895929 0.444196 0.000948
vn 0.895935 0.444184 0.000488
vn 0.895959 0.444135 0.001039
vn 0.924387 -0.183750 -0.334281
vn 0.924387 -0.183750 -0.334281
vn 0.945007 -0.245685 0.215871
vn 0.357237 0.907270 0.221909
vn 0.372776 0.901103 0.221475
vn 0.938985 -0.264649 0.219699
vn 0.939871 -0.262417 -0.218587
vn 0.939871 -0.262417 -0.218587
vn 0.931710 -0.277070 -0.234839
vn 0.947034 -0.305564 -0.098783
vn 0.901744 -0.249515 -0.352988
vn 0.419107 0.844182 -0.334225
vn 0.661381 0.316456 -0.680023
vn 0.347519 0.869844 -0.350146
vn 0.347519 0.869844 -0.350146
vn 0.359912 0.907446 -0.216807
vn 0.359912 0.907446 -0.216807
vn 0.329921 0.939041 -0.096716
vn 0.343391 0.910206 -0.231534
vn 0.354316 0.903712 0.240345
vn 0.331276 0.941162 0.066865
vn 0.331276 0.941162 0.066865
vn 0.949639 -0.306564 0.064835
vn 0.949639 -0.306564 0.064835
vn 0.934509 -0.264834 0.237815
vn 0.766907 -0.092951 0.634991
vn 0.766907 -0.092951 0.634991
vn 0.890135 -0.175483 0.420553
vn 0.890135 -0.175483 0.420553
vn 0.398010 0.814363 0.422375
vn 0.398010 0.814363 0.422375
vn 0.409139 0.665322 0.624461
vn 0.440524 0.478848 0.759370
vn 0.440524 0.478848 0.759370
vn 0.549890 0.266035 0.791736
vn 0.642087 0.041548 0.765505
vn -0.895915 -0.444226 -0.000770
vn -0.895937 -0.444181 -0.000866
vn -0.895977 -0.444101 -0.000777
vn -0.895960 -0.444134 -0.000972
vn -0.895873 -0.444310 -0.000826
vn -0.895872 -0.444312 -0.000995
vn -0.896000 -0.444053 -0.000792
vn -0.895896 -0.444263 -0.000465
vn 0.000000 -0.000000 1.000000
vn 0.550200 0.835033 0.000000
vn 0.996208 -0.086998 0.000000
vn 0.984863 -0.173336 0.000000
vn 0.000000 -1.000000 0.000003
vn 0.865900 -0.500218 0.000000
vn 0.642873 -0.765973 0.000000
vn 0.341785 -0.939778 0.000000
vn -0.550200 0.835033 0.000000
vn -0.996208 -0.086998 0.000000
vn -0.984863 -0.173336 0.000000
vn -0.865900 -0.500218 0.000000
vn -0.642873 -0.765973 0.000000
vn -0.341785 -0.939778 0.000000
vn -0.442304 0.896862 -0.002444
vn -0.442304 0.896862 -0.002444
vn -0.883469 0.468439 -0.006938
vn -0.883469 0.468439 -0.006938
vn 0.990480 0.137377 0.008806
vn 0.468164 0.883625 0.005434
vn 0.468164 0.883625 0.005434
vn 0.883449 -0.468477 0.006938
vn 0.883449 -0.468477 0.006938
vn 0.442304 -0.896862 0.002444
vn 0.442304 -0.896862 0.002444
vn -0.468054 -0.883683 -0.005435
vn -0.468054 -0.883683 -0.005435
vn -0.990457 -0.137542 -0.008807
vn 0.442304 0.896862 -0.002444
vn 0.883469 0.468439 -0.006938
vn 0.883469 0.468439 -0.006938
vn 0.442304 0.896862 -0.002444
vn -0.990480 0.137377 0.008806
vn -0.468164 0.883625 0.005434
vn -0.468164 0.883625 0.005434
vn -0.883449 -0.468477 0.006938
vn -0.883449 -0.468477 0.006938
vn -0.442304 -0.896862 0.002444
vn -0.442304 -0.896862 0.002444
vn 0.468054 -0.883683 -0.005435
vn 0.468054 -0.883683 -0.005435
vn 0.990457 -0.137542 -0.008807
vn -0.980452 0.196758 -0.000004
usemtl default
f 1/1/1 2/2/2 3/3/2 4/4/1
f 5/5/3 6/6/4 7/7/5 8/8/5
f 9/9/6 10/10/6 11/11/7 12/12/7
f 13/13/8 14/14/9 15/15/9 16/16/8
f 17/17/10 18/18/11 19/19/12 20/20/13
f 19/21/12 21/22/14 22/23/15 23/24/16
f 24/25/17 25/26/18 26/27/19 27/28/20
f 25/29/18 28/30/21 26/31/19
f 9/9/22 12/12/23 28/32/24
f 29/33/25 30/34/25 31/35/26 32/36/26
f 33/37/27 34/38/28 35/39/28 36/40/27
f 15/41/29 34/38/29 33/37/30 16/42/30
f 37/43/31 38/44/32 39/45/33 40/46/31
f 41/47/34 42/48/35 43/49/35 44/50/34
f 10/51/36 9/52/36 25/26/36 24/25/36
f 45/53/37 46/54/37 17/17/37 20/20/37
f 47/55/38 26/31/19 28/30/21 48/56/38
f 22/23/15 21/22/14 49/57/39 50/58/39
f 9/9/22 28/32/24 25/59/40
f 51/60/41 21/61/42 52/62/43
f 27/63/44 53/64/45 54/65/45 5/5/44
f 55/66/46 18/67/47 40/46/47 39/45/46
f 26/27/48 47/68/49 56/69/50
f 13/13/51 57/70/52 58/71/52 59/72/51
f 56/69/53 53/73/53 27/28/20 26/27/19
f 55/74/54 52/62/55 19/19/12 18/18/11
f 5/5/44 8/8/56 24/75/56 27/63/44
f 60/76/57 7/7/58 11/77/58 10/78/57
f 61/79/59 40/46/47 18/67/47 17/80/59
f 4/4/60 3/3/61 62/81/61 63/82/60
f 31/35/62 30/34/63 2/2/63 1/1/62
f 35/83/64 29/33/64 32/36/65 36/84/65
f 43/85/66 38/44/66 37/43/67 44/86/67
f 10/78/57 24/75/56 8/8/56 60/76/57
f 17/80/59 46/87/68 64/88/69 61/79/59
f 51/89/41 65/90/70 49/57/70 21/22/42
f 63/91/71 62/92/72 66/93/72 59/72/71
f 45/94/73 67/95/74 68/96/74 46/97/73
f 68/98/75 69/99/75 64/88/69 46/87/68
f 70/100/76 71/101/77 72/102/77 73/103/76
f 73/104/78 72/105/79 6/6/79 74/106/78
f 41/47/34 44/50/34 68/96/74 67/95/74
f 44/86/67 37/43/67 69/99/75 68/98/75
f 12/12/7 11/11/7 72/102/77 71/101/77
f 11/77/58 7/7/58 6/6/79 72/105/79
f 8/8/5 7/7/5 60/76/80
f 6/6/4 5/5/3 74/106/81
f 37/43/31 40/46/31 61/79/82 69/99/82
f 69/99/82 61/79/82 64/88/83
f 22/107/84 41/47/85 23/108/86
f 20/109/87 67/95/87 45/94/88
f 28/32/24 71/101/89 70/100/90
f 28/32/24 12/12/23 71/101/89
f 22/107/84 42/48/91 41/47/85
f 75/110/92 76/111/93 77/112/93 78/113/92
f 79/114/94 1/1/1 4/4/1 80/115/94
f 81/116/95 82/117/96 83/118/96 84/119/95
f 85/120/97 86/121/98 87/122/98 88/123/97
f 57/70/99 13/13/8 16/16/8 89/124/99
f 90/125/100 91/126/100 92/127/101 93/128/101
f 38/44/32 94/129/102 95/130/102 96/131/103
f 97/132/104 32/36/26 31/35/26 98/133/104
f 99/134/105 100/135/105 74/106/81 101/136/106
f 42/48/35 102/137/107 103/138/107 43/49/35
f 104/139/108 33/37/27 36/40/27 105/140/108
f 73/103/76 106/141/109 107/142/109 70/100/76
f 87/143/110 102/137/111 88/144/112
f 89/145/113 16/42/30 33/37/30 104/139/113
f 107/142/114 90/146/115 93/147/116
f 91/126/117 108/148/117 109/149/118 92/127/118
f 13/13/51 59/72/51 66/93/119 14/14/119
f 110/150/120 111/151/121 86/121/121 85/120/120
f 77/112/122 112/152/122 113/153/123 78/113/123
f 4/4/60 63/82/60 114/154/124 80/115/124
f 115/155/125 116/156/126 82/117/126 81/116/125
f 95/130/127 76/111/127 75/110/128 96/131/128
f 98/133/129 31/35/62 1/1/62 79/114/129
f 84/119/130 83/118/131 99/134/131 101/136/130
f 43/85/66 103/157/132 94/129/132 38/44/66
f 105/158/133 36/84/65 32/36/65 97/132/133
f 100/135/134 106/159/134 73/104/78 74/106/78
f 112/160/135 111/151/136 110/150/137
f 63/91/71 59/72/71 58/71/138 114/161/138
f 109/149/139 108/148/140 116/162/140 115/163/141
f 102/137/111 42/48/91 22/107/84
f 107/142/114 28/32/24 70/100/90
f 79/114/94 80/115/94 77/112/93 76/111/93
f 3/3/2 2/2/2 83/118/96 82/117/96
f 57/70/99 89/124/99 87/122/98 86/121/98
f 15/15/9 14/14/9 91/126/100 90/125/100
f 97/132/104 98/133/104 95/130/102 94/129/102
f 30/34/25 29/33/25 100/135/105 99/134/105
f 104/139/108 105/140/108 103/138/107 102/137/107
f 35/39/28 34/38/28 107/142/109 106/141/109
f 89/145/113 104/139/113 102/137/111 87/143/110
f 34/38/29 15/41/29 90/146/115 107/142/114
f 14/14/119 66/93/119 108/148/117 91/126/117
f 58/71/52 57/70/52 86/121/121 111/151/121
f 80/115/124 114/154/124 112/152/122 77/112/122
f 62/81/61 3/3/61 82/117/126 116/156/126
f 98/133/129 79/114/129 76/111/127 95/130/127
f 2/2/63 30/34/63 99/134/131 83/118/131
f 105/158/133 97/132/133 94/129/132 103/157/132
f 29/33/64 35/83/64 106/159/134 100/135/134
f 114/161/138 58/71/138 111/151/136 112/160/135
f 66/93/72 62/92/72 116/162/140 108/148/140
f 85/120/97 88/123/97 117/164/142 118/165/142
f 118/165/143 119/166/143 110/150/120 85/120/120
f 120/167/144 121/168/144 93/128/101 92/127/101
f 92/127/118 109/149/118 122/169/145 120/167/145
f 49/57/70 65/90/70 119/166/143 118/165/143
f 123/170/146 124/171/146 121/168/144 120/167/144
f 118/165/142 117/164/142 50/58/39 49/57/39
f 120/167/145 122/169/145 125/172/147 123/170/147
f 55/74/54 75/110/92 78/113/92 52/62/55
f 78/113/123 113/153/123 51/60/41 52/62/43
f 96/131/128 75/110/128 55/66/46 39/45/46
f 56/69/53 81/116/95 84/119/95 53/73/53
f 126/173/148 115/155/125 81/116/125 56/69/50
f 53/64/45 84/119/130 101/136/130 54/65/45
f 38/44/32 96/131/103 39/45/33
f 101/136/106 74/106/81 5/5/3 54/65/149
f 125/172/150 115/163/141 126/174/151
f 113/175/152 65/90/152 51/89/153
f 123/170/146 47/55/38 48/56/38 124/171/146
f 56/69/50 47/68/49 126/173/148
f 52/62/55 21/61/14 19/19/12
f 19/21/12 23/24/16 20/176/13
f 107/142/114 48/177/154 28/32/24
f 109/149/139 115/163/141 122/169/155
f 122/169/155 115/163/141 125/172/150
f 107/142/114 124/178/156 48/177/154
f 124/178/156 93/147/116 121/179/157
f 107/142/114 93/147/116 124/178/156
f 88/144/112 50/180/158 117/181/159
f 50/180/158 102/137/111 22/107/84
f 88/144/112 102/137/111 50/180/158
f 113/175/152 112/160/135 119/166/160 65/90/152
f 112/160/135 110/150/137 119/166/160
f 20/109/87 23/108/86 41/47/85 67/95/87
f 126/174/148 47/55/49 123/170/147 125/172/147
f 127/182/161 128/183/161 129/184/162 130/185/162
f 131/186/163 132/187/164 133/188/164 134/189/165
f 135/190/166 136/191/167 137/192/167 138/193/166
f 139/194/168 140/195/168 141/196/169 142/197/169
f 143/198/170 144/199/171 145/200/172 146/201/173
f 145/202/172 147/203/174 148/204/175 149/205/176
f 150/206/177 151/207/178 152/208/179 153/209/180
f 153/210/180 152/211/179 154/212/181
f 135/190/182 154/213/183 136/191/184
f 155/214/185 156/215/186 157/216/186 158/217/185
f 159/218/187 160/219/187 161/220/188 162/221/188
f 141/222/189 140/223/190 159/218/190 162/221/189
f 163/224/191 164/225/191 165/226/192 166/227/193
f 167/228/194 168/229/194 169/230/195 170/231/195
f 138/232/196 150/206/196 153/209/196 135/233/196
f 171/234/197 144/199/197 143/198/197 172/235/197
f 173/236/198 174/237/198 154/212/181 152/211/179
f 148/204/175 175/238/199 176/239/199 149/205/176
f 135/190/182 153/240/200 154/213/183
f 177/241/201 178/242/202 149/243/203
f 151/244/204 131/186/204 179/245/205 180/246/205
f 181/247/206 165/226/206 164/225/207 146/248/207
f 152/208/48 182/249/208 173/250/209
f 139/194/210 183/251/210 184/252/211 185/253/211
f 182/249/212 152/208/179 151/207/178 180/254/212
f 181/255/213 146/201/173 145/200/172 178/242/214
f 131/186/204 151/244/204 150/256/215 132/187/215
f 186/257/216 138/258/216 137/259/217 133/188/217
f 187/260/218 143/261/218 146/248/207 164/225/207
f 128/183/219 188/262/219 189/263/220 129/184/220
f 157/216/221 127/182/221 130/185/222 158/217/222
f 161/264/223 160/265/224 156/215/224 155/214/223
f 169/266/225 168/267/226 163/224/226 166/227/225
f 138/258/216 186/257/216 132/187/215 150/256/215
f 143/261/218 187/260/218 190/268/227 172/269/227
f 177/270/201 149/205/203 176/239/228 191/271/228
f 188/272/229 183/251/229 192/273/230 189/274/230
f 171/275/231 172/276/231 193/277/232 194/278/232
f 193/279/233 172/269/227 190/268/227 195/280/233
f 196/281/234 197/282/234 198/283/235 199/284/235
f 197/285/236 200/286/236 134/189/237 198/287/237
f 167/228/194 194/278/232 193/277/232 168/229/194
f 168/267/226 193/279/233 195/280/233 163/224/226
f 136/191/167 199/284/235 198/283/235 137/192/167
f 137/259/217 198/287/237 134/189/237 133/188/217
f 132/187/164 186/257/238 133/188/164
f 134/189/165 200/286/239 131/186/163
f 163/224/191 195/280/240 187/260/240 164/225/191
f 195/280/240 190/268/241 187/260/240
f 148/288/242 147/289/243 167/228/244
f 144/290/245 171/275/246 194/278/245
f 154/213/183 196/281/247 199/284/248
f 154/213/183 199/284/248 136/191/184
f 148/288/242 167/228/244 170/231/249
f 201/291/250 202/292/250 203/293/251 204/294/251
f 205/295/252 206/296/252 128/183/161 127/182/161
f 207/297/253 208/298/253 209/299/254 210/300/254
f 211/301/255 212/302/255 213/303/256 214/304/256
f 185/253/257 215/305/257 140/195/168 139/194/168
f 216/306/258 217/307/259 218/308/259 219/309/258
f 166/227/193 220/310/260 221/311/261 222/312/261
f 223/313/262 224/314/262 157/216/186 156/215/186
f 225/315/263 226/316/264 200/286/239 227/317/263
f 170/231/195 169/230/195 228/318/265 229/319/265
f 230/320/266 231/321/266 160/219/187 159/218/187
f 197/282/234 196/281/234 232/322/267 233/323/267
f 213/324/268 212/325/269 229/319/270
f 215/326/271 230/320/271 159/218/190 140/223/190
f 232/322/272 217/327/273 216/328/274
f 219/309/275 218/308/276 234/329/276 235/330/275
f 139/194/210 142/197/277 192/273/277 183/251/210
f 236/331/278 211/301/278 214/304/279 237/332/279
f 203/293/280 202/292/281 238/333/281 239/334/280
f 128/183/219 206/296/282 240/335/282 188/262/219
f 241/336/283 207/297/283 210/300/284 242/337/284
f 221/311/285 220/310/286 201/291/286 204/294/285
f 224/314/287 205/295/287 127/182/221 157/216/221
f 208/298/288 226/316/288 225/315/289 209/299/289
f 169/266/225 166/227/225 222/312/290 228/338/290
f 231/339/291 223/313/291 156/215/224 160/265/224
f 227/317/292 200/286/236 197/285/236 233/340/292
f 239/341/293 236/331/294 237/332/295
f 188/272/229 240/342/296 184/252/296 183/251/229
f 234/329/297 241/343/298 242/344/299 235/330/299
f 229/319/270 148/288/242 170/231/249
f 232/322/272 196/281/247 154/213/183
f 205/295/252 204/294/251 203/293/251 206/296/252
f 129/184/162 210/300/254 209/299/254 130/185/162
f 185/253/257 214/304/256 213/303/256 215/305/257
f 141/196/169 216/306/258 219/309/258 142/197/169
f 223/313/262 222/312/261 221/311/261 224/314/262
f 158/217/185 225/315/263 227/317/263 155/214/185
f 230/320/266 229/319/265 228/318/265 231/321/266
f 161/220/188 233/323/267 232/322/267 162/221/188
f 215/326/271 213/324/268 229/319/270 230/320/271
f 162/221/189 232/322/272 216/328/274 141/222/189
f 142/197/277 219/309/275 235/330/275 192/273/277
f 184/252/211 237/332/279 214/304/279 185/253/211
f 206/296/282 203/293/280 239/334/280 240/335/282
f 189/263/220 242/337/284 210/300/284 129/184/220
f 224/314/287 221/311/285 204/294/285 205/295/287
f 130/185/222 209/299/289 225/315/289 158/217/222
f 231/339/291 228/338/290 222/312/290 223/313/291
f 155/214/223 227/317/292 233/340/292 161/264/223
f 240/342/296 239/341/293 237/332/295 184/252/296
f 192/273/230 235/330/299 242/344/299 189/274/230
f 211/301/255 243/345/300 244/346/300 212/302/255
f 243/345/301 211/301/278 236/331/278 245/347/301
f 246/348/302 218/308/259 217/307/259 247/349/302
f 218/308/276 246/348/303 248/350/303 234/329/276
f 176/239/228 243/345/301 245/347/301 191/271/228
f 249/351/304 246/348/302 247/349/302 250/352/304
f 243/345/300 176/239/199 175/238/199 244/346/300
f 246/348/303 249/351/305 251/353/305 248/350/303
f 181/255/213 178/242/214 202/292/250 201/291/250
f 202/292/281 178/242/202 177/241/201 238/333/281
f 220/310/286 165/226/206 181/247/206 201/291/286
f 182/249/212 180/254/212 208/298/253 207/297/253
f 252/354/306 182/249/208 207/297/283 241/336/283
f 180/246/205 179/245/205 226/316/288 208/298/288
f 166/227/193 165/226/192 220/310/260
f 226/316/264 179/245/307 131/186/163 200/286/239
f 251/353/308 252/355/309 241/343/298
f 238/356/310 177/270/311 191/271/310
f 249/351/304 250/352/304 174/237/198 173/236/198
f 182/249/208 252/354/306 173/250/209
f 178/242/214 145/200/172 149/243/176
f 145/202/172 144/357/171 147/203/174
f 232/322/272 154/213/183 174/358/312
f 234/329/297 248/350/313 241/343/298
f 248/350/313 251/353/308 241/343/298
f 232/322/272 174/358/312 250/359/314
f 250/359/314 247/360/315 217/327/273
f 232/322/272 250/359/314 217/327/273
f 212/325/269 244/361/316 175/362/317
f 175/362/317 148/288/242 229/319/270
f 212/325/269 175/362/317 229/319/270
f 238/356/310 191/271/310 245/347/318 239/341/293
f 239/341/293 245/347/318 236/331/294
f 144/290/245 194/278/245 167/228/244 147/289/243
f 252/355/306 251/353/305 249/351/305 173/236/209
f 253/363/319 254/364/320 255/365/321 256/366/319
f 254/364/320 257/367/322 258/368/323 255/365/321
f 257/367/322 259/369/324 260/370/325 258/368/323
f 259/369/324 261/371/326 262/372/327 260/370/325
f 261/371/326 263/373/328 264/374/329 262/372/327
f 263/373/328 265/375/330 266/376/331 264/374/329
f 265/375/330 267/377/332 268/378/333 266/376/331
f 267/377/332 269/379/334 270/380/335 268/378/333
f 269/379/334 271/381/336 272/382/336 270/380/335
f 271/381/336 273/383/337 274/384/338 272/382/336
f 273/385/337 275/386/339 276/387/340 274/388/338
f 277/389/341 278/390/342 276/387/340 275/386/339
f 277/389/341 279/391/343 280/392/343 281/393/344
f 279/391/343 282/394/345 283/395/345 280/392/343
f 282/394/345 284/396/346 285/397/347 283/395/345
f 284/396/346 286/398/348 285/397/347
f 287/399/349 288/400/350 289/401/351 290/402/352
f 288/400/350 253/363/319 256/366/319 289/401/351
f 256/403/319 255/404/321 291/405/353 292/406/354
f 255/404/321 258/407/323 293/408/355 291/405/353
f 258/407/323 260/409/325 294/410/356 293/408/355
f 260/409/325 262/411/327 295/412/357 294/410/356
f 262/411/327 264/413/329 296/414/358 295/412/357
f 264/415/329 266/416/331 297/417/359 296/418/358
f 266/416/331 268/419/333 298/420/360 297/417/359
f 268/419/333 270/421/335 299/422/361 298/420/360
f 270/421/335 272/423/336 300/424/362 299/422/361
f 272/423/336 274/425/338 301/426/363 300/424/362
f 274/425/338 302/427/364 303/428/365 301/426/363
f 304/429/366 305/430/367 306/431/368 307/432/366
f 305/430/367 308/433/369 309/434/369 306/431/368
f 308/433/369 310/435/370 311/436/370 309/434/369
f 310/437/370 312/438/371 313/439/371 311/440/370
f 312/438/371 314/441/372 315/442/372 313/439/371
f 316/443/373 289/444/351 317/445/374 318/446/375
f 256/403/319 292/406/354 317/445/374 289/444/351
f 278/447/376 281/448/376 319/449/376 320/450/376
f 281/448/376 280/451/377 321/452/377 319/449/376
f 280/451/377 283/453/376 322/454/376 321/452/377
f 283/453/376 285/455/376 323/456/376 322/454/376
f 285/455/376 286/457/376 324/458/376 323/456/376
f 316/443/373 318/446/375 315/442/372 314/441/372
f 325/459/378 326/460/379 327/461/378 328/462/378
f 326/460/379 329/463/378 327/461/378
f 326/460/379 330/464/379 329/463/378
f 326/460/379 331/465/379 330/464/379
f 326/460/379 332/466/378 333/467/378 331/465/379
f 303/428/365 302/427/364 304/429/366 307/432/366
f 334/468/378 335/469/378 326/460/379
f 335/469/378 336/470/378 326/460/379
f 336/470/378 337/471/378 326/460/379
f 337/471/378 338/472/378 326/460/379
f 338/472/378 339/473/379 326/460/379
f 339/473/379 340/474/379 326/460/379
f 340/474/379 341/475/379 326/460/379
f 341/475/379 342/476/378 326/460/379
f 342/476/378 343/477/378 326/460/379
f 343/477/378 344/478/378 326/460/379
f 344/478/378 332/466/378 326/460/379
f 325/459/378 345/479/378 326/460/379
f 345/479/378 334/468/378 326/460/379
f 334/468/380 292/480/380 291/481/381 335/469/381
f 335/469/381 291/481/381 293/482/382 336/470/382
f 336/470/382 293/482/382 294/483/383 337/471/383
f 337/471/383 294/483/383 295/484/384 338/472/384
f 338/472/384 295/484/384 296/485/385 339/473/385
f 339/473/385 296/485/385 297/486/386 340/474/386
f 340/474/386 297/486/386 298/487/387 341/475/387
f 341/475/387 298/487/387 299/488/388 342/476/388
f 342/476/388 299/488/388 300/489/389 343/477/389
f 343/477/389 300/489/389 301/490/390 344/478/390
f 344/478/390 301/490/390 303/491/391 332/466/392
f 325/459/393 318/492/393 317/493/394 345/479/394
f 345/479/394 317/493/394 292/480/380 334/468/380
f 315/494/395 328/462/395 327/461/396 313/495/396
f 313/495/396 327/461/396 329/463/397 311/496/397
f 311/496/397 329/463/397 330/464/398 309/497/398
f 309/497/398 330/464/398 331/465/399 306/498/400
f 306/498/400 331/465/399 333/467/401 307/499/401
f 318/492/393 325/459/393 328/462/395 315/494/395
f 332/466/392 303/491/391 307/499/401 333/467/401
f 276/387/340 278/390/342 302/500/364
f 290/402/352 316/501/373 286/398/348
f 276/387/340 302/500/364 274/388/338
f 289/401/351 316/501/373 290/402/352
f 304/502/402 320/450/402 319/449/403 305/503/403
f 305/503/403 319/449/403 321/452/404 308/504/405
f 308/504/405 321/452/404 322/454/406 310/505/406
f 310/505/406 322/454/406 323/456/407 312/506/407
f 312/506/407 323/456/407 324/458/408 314/507/408
f 302/508/409 278/447/409 320/450/402 304/509/402
f 286/457/410 316/510/410 314/511/408 324/458/408
f 277/389/341 281/393/344 278/390/342
f 287/399/349 290/402/352 286/398/348 284/396/346
f 346/512/411 347/513/411 348/514/412 349/515/413
f 350/516/414 351/517/414 352/518/415 353/519/415
f 354/520/416 355/521/416 356/522/416 357/523/416
f 358/524/417 359/525/417 360/526/418 361/527/418
f 357/523/419 356/522/419 362/528/420 363/529/421
f 364/530/422 365/531/423 366/532/424
f 364/530/422 367/533/425 365/531/423
f 368/534/426 369/535/426 370/536/427 371/537/428
f 371/537/429 370/536/429 351/517/429 350/516/429
f 372/538/430 373/539/431 374/540/432 375/541/433
f 353/519/415 352/518/415 366/542/424 365/543/423
f 367/544/425 364/545/422 347/546/411 346/512/411
f 376/547/434 377/548/434 378/549/435 379/550/435
f 380/551/436 381/552/436 382/553/437 383/554/437
f 384/555/438 385/556/438 386/557/438
f 387/558/439 388/559/439 389/560/440 390/561/440
f 391/562/441 392/563/441 393/564/442 394/565/442
f 395/566/443 396/567/443 397/568/444 398/569/444
f 349/515/413 348/514/412 355/521/445 354/520/446
f 399/570/447 400/571/447 401/572/448 402/573/448
f 403/574/449 404/575/450 400/571/447 399/570/447
f 405/576/439 388/559/439 387/558/439 406/577/438
f 405/576/439 406/577/438 407/578/439
f 389/560/440 408/579/451 409/580/440 390/561/440
f 410/581/440 411/582/440 409/580/440 408/579/451
f 412/583/440 413/584/440 414/585/452 415/586/440
f 416/587/440 417/588/439 418/589/453 419/590/451
f 420/591/438 421/592/438 422/593/438 423/594/438
f 359/525/417 358/524/417 363/529/421 362/528/420
f 361/527/418 360/526/418 381/552/436 380/551/436
f 369/535/426 368/534/426 375/541/433 374/540/432
f 373/539/431 372/538/430 379/550/435 378/549/435
f 377/548/434 376/547/434 394/565/442 393/564/442
f 383/554/437 382/553/437 396/567/443 395/566/443
f 392/563/441 391/562/441 402/573/448 401/572/448
f 404/575/450 403/574/449 398/569/444 397/568/444
f 412/583/440 415/586/440 411/582/440 410/581/440
f 416/587/440 419/590/451 414/585/452 413/584/440
f 420/591/438 423/594/438 418/589/453 417/588/439
f 384/555/438 386/557/438 422/593/438 421/592/438
f 346/512/454 349/515/455 388/559/455 405/576/456
f 350/516/457 353/519/458 387/558/458 390/561/457
f 354/520/459 357/523/460 408/579/461 389/560/459
f 358/524/462 361/527/463 413/584/463 412/583/462
f 357/523/460 363/529/464 410/581/464 408/579/461
f 365/531/465 367/533/466 407/578/466 406/577/465
f 368/534/467 371/537/468 409/580/469 411/582/470
f 371/537/468 350/516/457 390/561/457 409/580/469
f 372/538/471 375/541/472 415/586/472 414/585/471
f 353/519/458 365/543/465 406/577/465 387/558/458
f 367/544/466 346/512/454 405/576/456 407/578/466
f 376/547/473 379/550/474 419/590/475 418/589/473
f 380/551/476 383/554/477 417/588/477 416/587/478
f 421/592/479 420/591/480 395/566/481 398/569/482
f 389/560/459 388/559/455 349/515/455 354/520/459
f 423/594/483 422/593/484 391/562/484 394/565/485
f 386/557/486 385/556/487 399/570/487 402/573/488
f 385/556/487 384/555/489 403/574/489 399/570/487
f 412/583/462 410/581/464 363/529/464 358/524/462
f 416/587/478 413/584/463 361/527/463 380/551/476
f 375/541/472 368/534/467 411/582/470 415/586/472
f 379/550/474 372/538/471 414/585/471 419/590/475
f 394/565/485 376/547/473 418/589/473 423/594/483
f 420/591/480 417/588/477 383/554/477 395/566/481
f 384/555/489 421/592/479 398/569/482 403/574/489
f 402/573/488 391/562/484 422/593/484 386/557/486
f 351/595/490 370/596/490 356/597/491 355/598/490
f 352/599/492 348/600/493 347/601/493 366/602/493
f 366/602/493 347/601/493 364/603/493
f 355/598/490 348/600/493 352/599/492 351/595/490
f 359/604/492 424/605/490 360/606/490
f 360/606/490 424/605/490 381/607/494
f 381/607/494 424/605/490 382/608/495
f 382/608/495 424/605/490 396/609/496
f 396/609/496 424/605/490 397/610/496
f 397/610/496 424/605/490 404/611/492
f 404/611/492 424/605/490 400/612/490
f 400/612/490 424/605/490 401/613/494
f 401/613/494 424/605/490 392/614/490
f 392/614/490 424/605/490 393/615/490
f 393/615/490 424/605/490 377/616/493
f 377/616/493 424/605/490 378/617/496
f 378/617/496 424/605/490 373/618/497
f 373/618/497 424/605/490 374/619/494
f 374/619/494 424/605/490 369/620/495
f 369/620/495 424/605/490 370/596/490
f 370/596/490 424/605/490 356/597/491
f 356/597/491 424/605/490 362/621/492
f 362/621/492 424/605/490 359/604/492
f 425/622/498 426/623/499 427/624/500 428/625/498
f 429/626/501 430/627/502 431/628/502 432/629/501
f 433/630/503 434/631/503 435/632/503 436/633/503
f 437/634/504 438/635/505 439/636/505 440/637/504
f 434/631/506 441/638/507 442/639/508 435/632/506
f 443/640/509 444/641/510 445/642/511
f 443/640/509 445/642/511 446/643/512
f 447/644/513 448/645/514 449/646/515 450/647/513
f 448/645/516 429/626/516 432/629/516 449/646/516
f 451/648/517 452/649/518 453/650/519 454/651/520
f 430/627/502 445/652/511 444/653/510 431/628/502
f 446/654/512 425/622/498 428/655/498 443/656/509
f 455/657/521 456/658/522 457/659/522 458/660/521
f 459/661/523 460/662/524 461/663/524 462/664/523
f 463/665/525 464/666/525 465/667/525
f 466/668/526 467/669/527 468/670/527 469/671/526
f 470/672/528 471/673/529 472/674/529 473/675/528
f 474/676/530 475/677/531 476/678/531 477/679/530
f 426/623/499 433/630/532 436/633/533 427/624/500
f 478/680/534 479/681/535 480/682/535 481/683/534
f 482/684/536 478/680/534 481/683/534 483/685/537
f 484/686/526 485/687/525 466/668/526 469/671/526
f 484/686/526 486/688/526 485/687/525
f 468/670/527 467/669/527 487/689/527 488/690/538
f 489/691/527 488/690/538 487/689/527 490/692/527
f 491/693/527 492/694/527 493/695/539 494/696/527
f 495/697/527 496/698/538 497/699/540 498/700/538
f 499/701/525 500/702/525 501/703/525 502/704/525
f 440/637/504 442/639/508 441/638/507 437/634/504
f 438/635/505 459/661/523 462/664/523 439/636/505
f 450/647/513 453/650/519 452/649/518 447/644/513
f 454/651/520 457/659/522 456/658/522 451/648/517
f 458/660/521 472/674/529 471/673/529 455/657/521
f 460/662/524 474/676/530 477/679/530 461/663/524
f 473/675/528 480/682/535 479/681/535 470/672/528
f 483/685/537 476/678/531 475/677/531 482/684/536
f 491/693/527 489/691/527 490/692/527 492/694/527
f 495/697/527 494/696/527 493/695/539 496/698/538
f 499/701/525 498/700/538 497/699/540 500/702/525
f 463/665/525 502/704/525 501/703/525 464/666/525
f 425/622/541 484/686/542 469/671/543 426/623/543
f 429/626/544 467/669/544 466/668/545 430/627/545
f 433/630/546 468/670/546 488/690/547 434/631/548
f 437/634/549 491/693/549 494/696/550 438/635/550
f 434/631/548 488/690/547 489/691/551 441/638/551
f 445/642/552 485/687/552 486/688/553 446/643/553
f 447/644/554 490/692/555 487/689/556 448/645/557
f 448/645/557 487/689/556 467/669/544 429/626/544
f 451/648/558 493/695/558 492/694/559 452/649/559
f 430/627/545 466/668/545 485/687/552 445/652/552
f 446/654/553 486/688/553 484/686/542 425/622/541
f 455/657/560 497/699/560 496/698/561 456/658/562
f 459/661/563 495/697/564 498/700/565 460/662/565
f 502/704/566 475/677/567 474/676/568 499/701/569
f 468/670/546 433/630/546 426/623/543 469/671/543
f 500/702/570 471/673/571 470/672/572 501/703/572
f 464/666/573 479/681/574 478/680/575 465/667/575
f 465/667/575 478/680/575 482/684/576 463/665/576
f 491/693/549 437/634/549 441/638/551 489/691/551
f 495/697/564 459/661/563 438/635/550 494/696/550
f 452/649/559 492/694/559 490/692/555 447/644/554
f 456/658/562 496/698/561 493/695/558 451/648/558
f 471/673/571 500/702/570 497/699/560 455/657/560
f 499/701/569 474/676/568 460/662/565 498/700/565
f 463/665/576 482/684/576 475/677/567 502/704/566
f 479/681/574 464/666/573 501/703/572 470/672/572
f 432/705/577 436/706/577 435/707/578 449/708/577
f 431/709/579 444/710/580 428/711/580 427/712/580
f 444/710/580 443/713/580 428/711/580
f 436/706/577 432/705/577 431/709/579 427/712/580
f 440/714/579 439/715/577 503/716/577
f 439/715/577 462/717/581 503/716/577
f 462/717/581 461/718/582 503/716/577
f 461/718/582 477/719/583 503/716/577
f 477/719/583 476/720/583 503/716/577
f 476/720/583 483/721/579 503/716/577
f 483/721/579 481/722/577 503/716/577
f 481/722/577 480/723/581 503/716/577
f 480/723/581 473/724/577 503/716/577
f 473/724/577 472/725/577 503/716/577
f 472/725/577 458/726/580 503/716/577
f 458/726/580 457/727/583 503/716/577
f 457/727/583 454/728/584 503/716/577
f 454/728/584 453/729/581 503/716/577
f 453/729/581 450/730/582 503/716/577
f 450/730/582 449/708/577 503/716/577
f 449/708/577 435/707/578 503/716/577
f 435/707/578 442/731/579 503/716/577
f 442/731/579 440/714/579 503/716/577
f 504/732/585 505/733/585 506/734/585 507/735/585
f 507/736/585 506/737/585 508/738/585 509/739/585
f 509/739/585 508/738/585 510/740/585
f 508/738/585 511/741/585 512/742/585
f 508/738/585 513/743/585 514/744/585
f 515/745/585 511/741/585 508/738/585
f 514/744/585 515/745/585 508/738/585
f 504/732/319 507/735/319 516/746/319 517/747/319
f 507/735/586 509/748/586 518/749/586 516/746/586
f 509/750/319 510/751/587 519/752/587 518/753/319
f 510/751/587 512/754/588 520/755/588 519/752/587
f 508/738/585 512/742/585 510/740/585
f 514/756/589 513/757/589 521/758/589 522/759/589
f 512/754/590 511/760/590 523/761/590 520/755/590
f 511/760/591 515/762/591 524/763/591 523/761/591
f 515/762/592 514/756/592 522/759/592 524/763/592
f 525/764/585 526/765/585 506/766/585 505/767/585
f 526/768/585 527/769/585 508/738/585 506/737/585
f 527/769/585 528/770/585 508/738/585
f 508/738/585 529/771/585 530/772/585
f 508/738/585 531/773/585 513/743/585
f 532/774/585 508/738/585 530/772/585
f 531/773/585 508/738/585 532/774/585
f 525/764/336 533/775/336 534/776/336 526/765/336
f 526/765/593 534/776/593 535/777/593 527/778/593
f 527/779/336 535/780/336 536/781/594 528/782/594
f 528/782/594 536/781/594 537/783/595 529/784/595
f 508/738/585 528/770/585 529/771/585
f 531/785/589 538/786/589 521/787/589 513/788/589
f 529/784/596 537/783/596 539/789/596 530/790/596
f 530/790/597 539/789/597 540/791/597 532/792/597
f 532/792/598 540/791/598 538/786/598 531/785/598
f 541/793/599 542/794/600 543/795/601 544/796/602
f 545/797/603 546/798/603 547/799/604 548/800/605
f 549/801/606 550/802/607 546/798/603 545/797/603
f 551/803/608 552/804/609 550/802/607 549/801/606
f 553/805/610 554/806/611 552/804/609 551/803/608
f 555/807/612 556/808/612 554/806/611 553/805/610
f 544/809/602 543/810/601 556/808/612 555/807/612
f 542/794/600 541/793/599 548/800/605 547/799/604
f 557/811/613 558/812/614 559/813/615 560/814/616
f 561/815/617 562/816/618 563/817/619 564/818/617
f 565/819/620 561/815/617 564/818/617 566/820/621
f 567/821/622 565/819/620 566/820/621 568/822/623
f 569/823/624 567/821/622 568/822/623 570/824/625
f 571/825/626 569/823/624 570/824/625 572/826/626
f 558/827/614 571/825/626 572/826/626 559/828/615
f 560/814/616 563/817/619 562/816/618 557/811/613
f 573/829/627 574/830/627 575/831/627 576/832/627
f 573/829/336 577/833/336 578/834/336 574/830/336
f 579/835/627 576/832/627 575/831/627 580/836/627
